<svg width="166" height="19" viewBox="0 0 166 19" fill="none" xmlns="http://www.w3.org/2000/svg">
<path d="M137.121 8.20312H92.043V10.1372H137.121V8.20312Z" fill="#BD8A3C"/>
<path d="M139.909 10.4404V7.88704C139.909 7.22438 139.4 6.6875 138.771 6.6875C138.142 6.6875 137.633 7.22438 137.633 7.88704V10.4404C137.633 11.1031 138.142 11.64 138.771 11.64C139.4 11.64 139.909 11.102 139.909 10.4404Z" fill="#BD8A3C"/>
<path d="M143.61 10.7607V7.56895C143.61 6.74142 142.973 6.07031 142.188 6.07031C141.402 6.07031 140.766 6.74142 140.766 7.56895V10.7607C140.766 11.5882 141.402 12.2593 142.188 12.2593C142.973 12.2593 143.61 11.5882 143.61 10.7607Z" fill="#BD8A3C"/>
<path d="M147.963 11.1985V7.12956C147.963 6.07375 147.15 5.21875 146.149 5.21875C145.147 5.21875 144.336 6.07481 144.336 7.12956V11.1985C144.336 12.2543 145.148 13.1093 146.149 13.1093C147.15 13.1093 147.963 12.2543 147.963 11.1985Z" fill="#BD8A3C"/>
<path d="M155.189 0.102871C154.538 0.496025 154.357 1.6533 154.166 2.34026C153.914 3.24177 153.694 4.17181 153.363 5.04584C153.167 5.62923 153.389 4.97715 153.363 5.04584C152.606 7.28851 150.578 8.78082 148.316 8.6931C151.729 9.6485 156.229 8.08117 156.986 4.04605C157.159 3.12234 157.115 2.1236 156.763 1.25063C156.534 0.679919 155.897 -0.324104 155.189 0.102871Z" fill="#BD8A3C"/>
<path d="M157.701 4.8864C157.272 6.27407 156.504 7.38907 155.191 7.94393C157.117 7.92913 159.718 7.66914 160.8 5.70653C161.272 4.84942 161.564 3.01787 160.361 2.61415C159.132 2.20197 158.009 3.77564 157.72 4.83674C157.586 5.28168 157.652 5.05339 157.701 4.8864Z" fill="#BD8A3C"/>
<path d="M152.61 11.8072C153.637 13.233 153.881 15.1681 154.407 16.8295C154.593 17.415 154.948 18.5649 155.746 18.2911C156.442 18.0523 156.804 17.136 156.961 16.4553C157.345 14.7781 156.824 12.8757 155.697 11.6339C153.837 9.55823 150.891 8.92517 148.316 9.64489C150.013 9.58042 151.588 10.3805 152.61 11.8072Z" fill="#BD8A3C"/>
<path d="M157.355 12.5149C157.854 13.5813 157.99 14.6974 159.012 15.4023C160.014 16.0671 161.103 15.6982 161.211 14.374C161.3 13.2896 160.724 12.219 159.9 11.6007C159.869 11.5785 159.839 11.5564 159.822 11.5437C158.424 10.6073 156.822 10.4044 155.195 10.3906C156.173 10.8049 156.887 11.5162 157.355 12.5149Z" fill="#BD8A3C"/>
<path d="M154.707 9.15959C159.523 9.35194 165.999 13.776 165.999 9.15959C165.999 4.54319 159.604 8.95878 154.707 9.15959Z" fill="#BD8A3C"/>
<path d="M73.9533 8.20312H28.875V10.1372H73.9533V8.20312Z" fill="#BD8A3C"/>
<path d="M28.3626 10.4404V7.88704C28.3626 7.22438 27.8531 6.6875 27.2243 6.6875C26.5954 6.6875 26.0859 7.22438 26.0859 7.88704V10.4404C26.0859 11.1031 26.5954 11.64 27.2243 11.64C27.8531 11.64 28.3626 11.102 28.3626 10.4404Z" fill="#BD8A3C"/>
<path d="M25.2311 10.7607V7.56895C25.2311 6.74142 24.5942 6.07031 23.8089 6.07031C23.0236 6.07031 22.3867 6.74142 22.3867 7.56895V10.7607C22.3867 11.5882 23.0236 12.2593 23.8089 12.2593C24.5942 12.2593 25.2311 11.5882 25.2311 10.7607Z" fill="#BD8A3C"/>
<path d="M21.6618 11.1985V7.12956C21.6618 6.07375 20.8494 5.21875 19.8485 5.21875C18.8466 5.21875 18.0352 6.07481 18.0352 7.12956V11.1985C18.0352 12.2543 18.8476 13.1093 19.8485 13.1093C20.8504 13.1093 21.6618 12.2543 21.6618 11.1985Z" fill="#BD8A3C"/>
<path d="M10.8097 18.2213C11.4596 17.8292 11.6412 16.6709 11.8327 15.984C12.0845 15.0835 12.3041 14.1513 12.6351 13.2784C12.609 13.3471 12.8316 12.695 12.6351 13.2784C13.3923 11.0357 15.4202 9.5434 17.6819 9.63112C14.2689 8.67572 9.77067 10.243 9.01244 14.2782C8.83893 15.2008 8.88407 16.2006 9.2351 17.0736C9.46377 17.6453 10.1016 18.6483 10.8097 18.2213Z" fill="#BD8A3C"/>
<path d="M8.29933 13.4403C8.72758 12.0527 9.49583 10.9377 10.8077 10.3828C8.88203 10.3976 6.2814 10.6587 5.19923 12.6213C4.72684 13.4784 4.43498 15.3099 5.63751 15.7136C6.86612 16.1258 7.98941 14.5521 8.27825 13.4911C8.41365 13.0461 8.34948 13.2733 8.29933 13.4403Z" fill="#BD8A3C"/>
<path d="M13.3863 6.52532C12.3592 5.09961 12.1155 3.16449 11.589 1.50309C11.4034 0.917586 11.0484 -0.232281 10.2501 0.0414472C9.55402 0.280299 9.19196 1.1966 9.0355 1.87723C8.65137 3.55447 9.17189 5.45683 10.2992 6.69865C12.1597 8.77434 15.1053 9.40741 17.6799 8.68768C15.9829 8.75215 14.4093 7.95209 13.3863 6.52532Z" fill="#BD8A3C"/>
<path d="M6.98962 2.92487C5.98668 2.2601 4.89849 2.62895 4.79018 3.95321C4.70192 5.03755 5.2776 6.10815 6.10101 6.72642C6.1321 6.74862 6.1622 6.77081 6.17925 6.78349C7.57735 7.71988 9.17905 7.9228 10.8068 7.93654C9.82795 7.52225 9.11386 6.80992 8.64749 5.81224C8.14802 4.74586 8.01262 3.62874 6.98962 2.92487Z" fill="#BD8A3C"/>
<path d="M0 9.15765C0 13.774 6.39477 9.35845 11.2921 9.15765C6.47601 8.9653 0 4.54125 0 9.15765Z" fill="#BD8A3C"/>
<path d="M85.7899 9.16308C85.7899 7.48055 84.5523 6.11719 83.0258 6.11719C81.4993 6.11719 80.2617 7.48055 80.2617 9.16308C80.2617 10.8456 81.4993 12.209 83.0258 12.209C84.5523 12.209 85.7899 10.8456 85.7899 9.16308Z" fill="#BD8A3C"/>
<path d="M88.7645 11.4904C89.9311 11.4904 90.8767 10.4485 90.8767 9.16317C90.8767 7.87788 89.9311 6.83594 88.7645 6.83594C87.598 6.83594 86.6523 7.87788 86.6523 9.16317C86.6523 10.4485 87.598 11.4904 88.7645 11.4904Z" fill="#BD8A3C"/>
<path d="M77.2294 11.4904C78.3959 11.4904 79.3416 10.4485 79.3416 9.16317C79.3416 7.87788 78.3959 6.83594 77.2294 6.83594C76.0628 6.83594 75.1172 7.87788 75.1172 9.16317C75.1172 10.4485 76.0628 11.4904 77.2294 11.4904Z" fill="#BD8A3C"/>
</svg>
