<svg width="311" height="396" viewBox="0 0 311 396" fill="none" xmlns="http://www.w3.org/2000/svg">
<path d="M155.222 1.58203C156.994 3.70146 159.425 5.59289 162.297 7.33105C165.628 9.34719 169.608 11.1909 173.958 12.96C178.31 14.7298 183.063 16.4363 187.942 18.1709C192.829 19.9079 197.844 21.674 202.753 23.5703C212.585 27.3687 221.889 31.655 228.726 37.1807C235.537 42.6857 239.826 49.3544 239.826 57.96V58.9307H242.811C253.542 58.9307 261.938 66.1953 261.938 74.8135V82.1963H285.098V104.688H287.206C299.673 104.688 309.478 113.133 309.478 123.203V394.857H1.93652L0.969727 123.203C0.969727 113.132 10.7716 104.689 23.2383 104.688H25.3477V82.1963H48.5059V74.8135C48.5059 66.1953 56.9033 58.9307 67.6348 58.9307H70.6191V57.96C70.6192 49.3544 74.9082 42.6857 81.7197 37.1807C88.5567 31.6552 97.8596 27.3686 107.691 23.5703C112.6 21.674 117.616 19.9079 122.502 18.1709C127.382 16.4363 132.134 14.7298 136.486 12.96C140.837 11.1909 144.816 9.34719 148.147 7.33105C151.019 5.59305 153.449 3.70121 155.222 1.58203Z" stroke="#BD8A3C" stroke-width="1.9403"/>
<rect x="4.85156" y="332.766" width="300.746" height="58.209" fill="#420001"/>
<path d="M124.952 354.122C125.793 354.122 126.432 354.223 126.869 354.425C127.306 354.61 127.693 354.82 128.029 355.055C128.231 355.173 128.391 355.265 128.508 355.333C128.643 355.383 128.769 355.408 128.887 355.408C129.055 355.408 129.173 355.316 129.24 355.131C129.324 354.946 129.391 354.668 129.442 354.298H130.022C130.005 354.584 129.98 354.929 129.946 355.333C129.929 355.719 129.913 356.241 129.896 356.896C129.896 357.535 129.896 358.385 129.896 359.444H129.316C129.265 358.637 129.089 357.863 128.786 357.123C128.483 356.384 128.038 355.778 127.449 355.307C126.877 354.837 126.121 354.601 125.179 354.601C124.288 354.601 123.548 354.87 122.959 355.408C122.387 355.946 122.102 356.653 122.102 357.527C122.102 358.284 122.295 358.923 122.682 359.444C123.069 359.949 123.581 360.411 124.22 360.831C124.876 361.235 125.583 361.672 126.339 362.143C127.214 362.681 127.987 363.219 128.66 363.757C129.349 364.279 129.887 364.859 130.274 365.498C130.678 366.137 130.88 366.91 130.88 367.818C130.88 368.895 130.636 369.786 130.148 370.492C129.66 371.198 129.013 371.728 128.206 372.081C127.399 372.434 126.507 372.611 125.532 372.611C124.641 372.611 123.935 372.51 123.413 372.308C122.892 372.106 122.446 371.896 122.076 371.678C121.706 371.442 121.421 371.325 121.219 371.325C121.051 371.325 120.924 371.417 120.84 371.602C120.773 371.787 120.714 372.064 120.664 372.434H120.084C120.117 372.081 120.134 371.669 120.134 371.198C120.151 370.711 120.159 370.08 120.159 369.307C120.176 368.533 120.185 367.558 120.185 366.381H120.765C120.832 367.39 121.017 368.331 121.32 369.206C121.639 370.08 122.118 370.786 122.757 371.325C123.413 371.846 124.279 372.106 125.355 372.106C125.91 372.106 126.432 371.997 126.919 371.779C127.424 371.543 127.836 371.182 128.155 370.694C128.475 370.189 128.635 369.542 128.635 368.752C128.635 368.062 128.466 367.465 128.13 366.961C127.811 366.44 127.357 365.96 126.768 365.523C126.179 365.069 125.49 364.607 124.7 364.136C123.909 363.648 123.169 363.152 122.48 362.648C121.791 362.143 121.236 361.563 120.815 360.907C120.412 360.234 120.21 359.427 120.21 358.486C120.21 357.493 120.428 356.678 120.866 356.039C121.32 355.383 121.908 354.904 122.631 354.601C123.354 354.282 124.128 354.122 124.952 354.122ZM136.43 372.434C135.74 372.434 135.143 372.308 134.639 372.056C134.134 371.787 133.748 371.417 133.479 370.946C133.226 370.475 133.1 369.929 133.1 369.307C133.1 368.567 133.268 367.961 133.605 367.49C133.958 367.02 134.403 366.641 134.942 366.355C135.48 366.07 136.043 365.834 136.632 365.649C137.237 365.447 137.809 365.262 138.347 365.094C138.885 364.909 139.322 364.699 139.658 364.464C140.012 364.228 140.188 363.917 140.188 363.53V361.966C140.188 361.26 140.079 360.722 139.86 360.352C139.658 359.982 139.381 359.738 139.028 359.621C138.675 359.486 138.28 359.419 137.842 359.419C137.422 359.419 136.968 359.478 136.48 359.595C136.009 359.713 135.631 359.957 135.345 360.327C135.665 360.394 135.942 360.562 136.178 360.831C136.413 361.1 136.531 361.445 136.531 361.866C136.531 362.286 136.396 362.622 136.127 362.875C135.858 363.11 135.513 363.228 135.093 363.228C134.605 363.228 134.244 363.076 134.008 362.774C133.79 362.454 133.68 362.101 133.68 361.714C133.68 361.277 133.79 360.924 134.008 360.655C134.227 360.386 134.504 360.134 134.841 359.898C135.227 359.629 135.723 359.402 136.329 359.217C136.951 359.015 137.649 358.914 138.422 358.914C139.112 358.914 139.7 358.998 140.188 359.167C140.676 359.318 141.079 359.545 141.399 359.848C141.836 360.251 142.122 360.747 142.256 361.336C142.391 361.908 142.458 362.597 142.458 363.404V370.416C142.458 370.837 142.517 371.14 142.635 371.325C142.769 371.51 142.971 371.602 143.24 371.602C143.425 371.602 143.602 371.56 143.77 371.476C143.938 371.392 144.14 371.257 144.375 371.072L144.653 371.501C144.3 371.77 143.963 371.997 143.644 372.182C143.324 372.35 142.895 372.434 142.357 372.434C141.87 372.434 141.466 372.35 141.147 372.182C140.827 372.014 140.583 371.77 140.415 371.451C140.264 371.114 140.188 370.694 140.188 370.189C139.734 370.946 139.188 371.51 138.549 371.879C137.926 372.249 137.22 372.434 136.43 372.434ZM137.338 371.425C137.893 371.425 138.406 371.266 138.876 370.946C139.364 370.627 139.801 370.147 140.188 369.508V364.565C139.986 364.85 139.692 365.094 139.305 365.296C138.919 365.481 138.498 365.674 138.044 365.876C137.59 366.061 137.153 366.288 136.732 366.557C136.329 366.809 135.993 367.146 135.723 367.566C135.454 367.987 135.32 368.533 135.32 369.206C135.32 369.878 135.496 370.416 135.85 370.82C136.22 371.224 136.716 371.425 137.338 371.425ZM153.255 358.914C153.709 358.914 154.104 359.007 154.441 359.192C154.794 359.377 155.063 359.621 155.248 359.923C155.45 360.209 155.551 360.537 155.551 360.907C155.551 361.327 155.416 361.697 155.147 362.017C154.895 362.336 154.55 362.496 154.113 362.496C153.76 362.496 153.449 362.387 153.18 362.168C152.911 361.933 152.776 361.605 152.776 361.185C152.776 360.865 152.86 360.596 153.028 360.377C153.213 360.142 153.415 359.957 153.634 359.822C153.516 359.654 153.339 359.57 153.104 359.57C152.583 359.57 152.103 359.73 151.666 360.049C151.229 360.352 150.859 360.747 150.556 361.235C150.254 361.723 150.018 362.244 149.85 362.799C149.682 363.337 149.598 363.841 149.598 364.312V369.66C149.598 370.484 149.833 371.039 150.304 371.325C150.792 371.594 151.448 371.728 152.272 371.728V372.258C151.885 372.241 151.338 372.224 150.632 372.207C149.926 372.174 149.177 372.157 148.387 372.157C147.815 372.157 147.244 372.174 146.672 372.207C146.117 372.224 145.697 372.241 145.411 372.258V371.728C146.1 371.728 146.588 371.602 146.874 371.35C147.176 371.098 147.328 370.618 147.328 369.912V362.017C147.328 361.26 147.193 360.705 146.924 360.352C146.655 359.982 146.151 359.797 145.411 359.797V359.268C145.949 359.318 146.47 359.343 146.975 359.343C147.462 359.343 147.925 359.318 148.362 359.268C148.816 359.2 149.228 359.108 149.598 358.99V362.143C149.783 361.655 150.043 361.168 150.38 360.68C150.733 360.176 151.153 359.755 151.641 359.419C152.129 359.083 152.667 358.914 153.255 358.914ZM162.28 358.914C163.76 358.914 164.912 359.368 165.736 360.276C166.576 361.168 166.997 362.563 166.997 364.464H158.093L158.068 363.984H164.575C164.609 363.16 164.542 362.404 164.373 361.714C164.205 361.008 163.936 360.445 163.566 360.024C163.213 359.604 162.751 359.394 162.179 359.394C161.405 359.394 160.716 359.78 160.111 360.554C159.522 361.327 159.169 362.555 159.051 364.237L159.127 364.338C159.093 364.59 159.068 364.867 159.051 365.17C159.034 365.473 159.026 365.775 159.026 366.078C159.026 367.221 159.211 368.205 159.581 369.029C159.951 369.853 160.43 370.484 161.019 370.921C161.624 371.341 162.246 371.552 162.885 371.552C163.39 371.552 163.869 371.476 164.323 371.325C164.777 371.156 165.197 370.887 165.584 370.517C165.971 370.147 166.307 369.651 166.593 369.029L167.098 369.231C166.913 369.786 166.61 370.324 166.19 370.845C165.769 371.367 165.24 371.795 164.6 372.132C163.961 372.451 163.222 372.611 162.381 372.611C161.17 372.611 160.127 372.333 159.253 371.779C158.395 371.224 157.731 370.459 157.26 369.483C156.806 368.491 156.579 367.356 156.579 366.078C156.579 364.598 156.815 363.329 157.286 362.269C157.756 361.193 158.421 360.369 159.278 359.797C160.136 359.209 161.136 358.914 162.28 358.914ZM175.04 358.914C176.519 358.914 177.671 359.368 178.495 360.276C179.336 361.168 179.756 362.563 179.756 364.464H170.852L170.827 363.984H177.335C177.369 363.16 177.301 362.404 177.133 361.714C176.965 361.008 176.696 360.445 176.326 360.024C175.973 359.604 175.51 359.394 174.939 359.394C174.165 359.394 173.476 359.78 172.87 360.554C172.282 361.327 171.929 362.555 171.811 364.237L171.887 364.338C171.853 364.59 171.828 364.867 171.811 365.17C171.794 365.473 171.786 365.775 171.786 366.078C171.786 367.221 171.971 368.205 172.341 369.029C172.711 369.853 173.19 370.484 173.778 370.921C174.384 371.341 175.006 371.552 175.645 371.552C176.149 371.552 176.629 371.476 177.083 371.325C177.537 371.156 177.957 370.887 178.344 370.517C178.731 370.147 179.067 369.651 179.353 369.029L179.857 369.231C179.672 369.786 179.37 370.324 178.949 370.845C178.529 371.367 177.999 371.795 177.36 372.132C176.721 372.451 175.981 372.611 175.141 372.611C173.93 372.611 172.887 372.333 172.013 371.779C171.155 371.224 170.491 370.459 170.02 369.483C169.566 368.491 169.339 367.356 169.339 366.078C169.339 364.598 169.574 363.329 170.045 362.269C170.516 361.193 171.18 360.369 172.038 359.797C172.896 359.209 173.896 358.914 175.04 358.914ZM186.185 358.914C186.858 358.914 187.429 359.024 187.9 359.242C188.371 359.461 188.716 359.663 188.934 359.848C189.489 360.302 189.826 359.999 189.943 358.94H190.524C190.49 359.41 190.465 359.974 190.448 360.63C190.431 361.269 190.423 362.135 190.423 363.228H189.843C189.742 362.605 189.565 362 189.313 361.412C189.077 360.823 188.724 360.344 188.253 359.974C187.783 359.587 187.169 359.394 186.412 359.394C185.824 359.394 185.327 359.562 184.924 359.898C184.537 360.218 184.344 360.697 184.344 361.336C184.344 361.84 184.495 362.278 184.798 362.648C185.1 363.001 185.496 363.337 185.983 363.656C186.471 363.959 187.001 364.295 187.572 364.665C188.211 365.069 188.792 365.481 189.313 365.901C189.834 366.322 190.246 366.784 190.549 367.289C190.868 367.793 191.028 368.39 191.028 369.08C191.028 369.853 190.826 370.501 190.423 371.022C190.019 371.543 189.489 371.938 188.834 372.207C188.195 372.476 187.488 372.611 186.715 372.611C186.345 372.611 185.992 372.577 185.655 372.51C185.336 372.46 185.025 372.376 184.722 372.258C184.554 372.174 184.377 372.073 184.192 371.955C184.024 371.837 183.856 371.711 183.688 371.577C183.52 371.442 183.368 371.451 183.234 371.602C183.099 371.737 182.998 372.014 182.931 372.434H182.351C182.385 371.896 182.41 371.24 182.427 370.467C182.444 369.693 182.452 368.668 182.452 367.39H183.032C183.15 368.331 183.318 369.155 183.537 369.862C183.755 370.568 184.1 371.123 184.571 371.526C185.042 371.913 185.697 372.106 186.538 372.106C186.874 372.106 187.211 372.031 187.547 371.879C187.9 371.728 188.195 371.476 188.43 371.123C188.665 370.77 188.783 370.299 188.783 369.71C188.783 368.97 188.514 368.365 187.976 367.894C187.438 367.423 186.757 366.927 185.933 366.406C185.327 366.019 184.756 365.632 184.218 365.246C183.696 364.859 183.267 364.422 182.931 363.934C182.612 363.446 182.452 362.858 182.452 362.168C182.452 361.412 182.62 360.798 182.956 360.327C183.31 359.839 183.772 359.486 184.344 359.268C184.915 359.032 185.529 358.914 186.185 358.914Z" fill="white"/>
<g clip-path="url(#clip0_696_7863)">
<mask id="mask0_696_7863" style="mask-type:alpha" maskUnits="userSpaceOnUse" x="4" y="7" width="302" height="448">
<path d="M282.357 108.574H281.218V86.0817H258.059V79.6688C258.059 70.3618 249.061 62.8154 237.961 62.8154H235.946C235.946 26.8705 168.807 26.8705 155.223 7.76562C141.64 26.8705 74.5004 26.8705 74.5004 62.8154H72.4859C61.3856 62.8154 52.3877 70.3618 52.3877 79.6688V86.0817H29.2289V108.574H28.0899C15.2544 108.574 4.85156 117.298 4.85156 128.058V293.694V298.955V333.742C4.85156 344.504 15.2571 353.226 28.0899 353.226H29.2289V375.718H52.3877V382.131C52.3877 391.438 61.3855 398.982 72.4885 398.982H74.5033C74.5033 434.927 141.643 434.927 155.226 454.034C168.809 434.929 235.949 434.929 235.949 398.982H237.963C249.064 398.982 258.061 391.438 258.061 382.131V375.718H281.22V353.226H282.359C295.195 353.226 305.598 344.502 305.598 333.742V298.957V293.696V128.058C305.598 117.298 295.192 108.574 282.357 108.574Z" fill="#191919"/>
</mask>
<g mask="url(#mask0_696_7863)">
<rect x="-24.2539" y="7.76562" width="367.955" height="411.043" fill="#C4C4C4"/>
</g>
</g>
<defs>
<clipPath id="clip0_696_7863">
<rect width="300.746" height="326.94" fill="white" transform="translate(4.85156 7.76562)"/>
</clipPath>
</defs>
</svg>
