<svg width="42" height="30" viewBox="0 0 42 30" fill="none" xmlns="http://www.w3.org/2000/svg">
<path d="M0.00292969 10.9577C-0.0251541 10.1489 0.210541 9.36985 0.685947 8.70347C1.37899 7.73752 2.47223 7.18286 3.68682 7.18286L3.80917 7.18485C4.20133 7.19672 4.59449 7.2669 4.97863 7.39148C5.2073 7.46563 5.44902 7.57836 5.65363 7.70491C6.09995 7.89573 6.85017 8.40687 7.71873 8.9991C8.79491 9.73371 10.0155 10.5662 10.9061 10.9518C11.3414 11.1406 11.8429 11.1802 12.1879 11.1802C12.4637 11.1802 12.7446 11.1545 12.9783 11.107C13.8177 10.9369 14.5078 10.1737 14.586 9.3323C14.6622 8.49191 14.1206 7.61988 13.3253 7.30449C12.8539 7.11664 12.2932 7.15517 11.9573 7.39048C11.7386 7.54472 11.5601 7.84528 11.542 8.08949C11.535 8.20517 11.5611 8.29318 11.6243 8.35151C11.7346 8.45334 11.7918 8.4652 11.8108 8.4652C11.862 8.4652 11.9422 8.37622 12.0204 8.29119C12.1749 8.12114 12.3875 7.88682 12.7576 7.88682C12.8298 7.88682 12.9071 7.8957 12.9853 7.91449C13.0776 7.93624 13.3925 8.03017 13.5469 8.33666C13.6663 8.57296 13.6533 8.86265 13.5048 9.19683C13.2731 9.71589 12.5289 10.1242 11.874 10.0639C11.1097 10.0026 10.5651 9.56759 10.3796 8.86858C10.1469 7.98765 10.534 6.94756 11.2843 6.45124C11.5781 6.25548 12.0305 6.14275 12.5239 6.14275C13.0756 6.14275 13.6061 6.28118 13.9792 6.52341C14.1517 6.63513 15.6632 7.66929 15.4877 9.51222C15.3633 10.8133 14.4436 11.7615 13.0254 12.0492C12.8439 12.0858 12.6423 12.1046 12.4236 12.1046C11.7767 12.1046 11.0736 11.9474 10.4839 11.6884C10.7086 12.0937 10.8018 12.4941 10.7627 12.8837C10.7116 13.4057 10.4227 13.7953 10.17 13.9851C10.1098 14.0296 10.0476 14.0691 9.98141 14.1047C11.0716 14.1799 12.1649 14.342 13.2451 14.5882C15.8387 13.9999 18.1415 13.0112 20.2798 11.5707C18.5828 10.4228 15.0845 7.80674 14.4075 5.36861C13.7927 3.16085 14.2079 1.51961 15.6411 0.491361C16.0694 0.183877 16.7695 0 17.5127 0C17.7945 0 18.0663 0.025702 18.32 0.0761255C19.314 0.272876 20.2026 0.933304 20.9639 2.03768C21.7221 0.933304 22.6117 0.273865 23.6077 0.0761255C23.8614 0.025702 24.1332 0 24.4141 0C25.1583 0 25.8573 0.183877 26.2856 0.491361C27.7188 1.51961 28.134 3.16085 27.5192 5.36861C26.8292 7.85519 23.0921 10.5899 21.6469 11.5707C23.7832 13.0112 26.088 13.9989 28.6827 14.5882C29.7639 14.342 30.8551 14.1799 31.9453 14.1037C31.8801 14.0691 31.8169 14.0286 31.7567 13.9841C31.504 13.7933 31.2161 13.4037 31.164 12.8807C31.1269 12.4922 31.2202 12.0927 31.4428 11.6874C30.6565 12.0354 29.6265 12.1946 28.9013 12.0492C27.4831 11.7615 26.5614 10.8133 26.441 9.51222C26.2655 7.6683 27.775 6.63513 27.9485 6.52341C28.3216 6.28118 28.8532 6.14275 29.4058 6.14275C29.8993 6.14275 30.3516 6.25548 30.6475 6.45124C31.3947 6.94756 31.7838 7.98666 31.5491 8.86858C31.3636 9.56759 30.82 10.0036 30.0547 10.0639C29.3948 10.1173 28.6506 9.706 28.4249 9.19683C28.2755 8.86265 28.2614 8.57395 28.3818 8.33666C28.5362 8.03116 28.8532 7.93625 28.9464 7.91548C29.0227 7.8967 29.0999 7.88782 29.1721 7.88782C29.5432 7.88782 29.7528 8.12115 29.9083 8.29219C29.9865 8.37722 30.0657 8.4662 30.1179 8.4662C30.137 8.4662 30.1941 8.45434 30.3045 8.3525C30.3676 8.29417 30.3947 8.20617 30.3867 8.09148C30.3697 7.84727 30.1911 7.54769 29.9695 7.39148C29.6335 7.15518 29.0698 7.1196 28.6034 7.30449C27.8091 7.62087 27.2665 8.49287 27.3427 9.33327C27.4209 10.1746 28.111 10.9369 28.9505 11.108C29.1841 11.1554 29.466 11.1812 29.7418 11.1812C30.0868 11.1812 30.5873 11.1416 31.0246 10.9528C31.9142 10.5672 33.1338 9.7347 34.21 9.0001C35.0776 8.40787 35.8278 7.89671 36.251 7.71677C36.4787 7.57835 36.7194 7.46563 36.9481 7.39148C37.3332 7.2669 37.7264 7.19672 38.1195 7.18485L38.2419 7.18286C39.4565 7.18286 40.5477 7.73752 41.2408 8.70347C41.7152 9.36788 41.9519 10.146 41.9258 10.9537C41.9188 11.1347 41.5687 12.8511 40.99 13.381C40.6911 13.7528 40.0282 14.428 38.8066 14.9926C39.4063 15.2635 39.9179 15.5809 40.303 15.921C41.7713 17.2152 41.9248 19.0245 41.9258 19.0433C41.9519 19.853 41.7152 20.6331 41.2408 21.2965C40.5477 22.2625 39.4555 22.8171 38.2419 22.8171L38.1195 22.8151C37.7274 22.8023 37.3342 22.7331 36.9481 22.6075C36.7214 22.5344 36.4797 22.4216 36.2731 22.2941C35.8268 22.1033 35.0766 21.5911 34.209 20.9989C33.1328 20.2643 31.9122 19.4318 31.0236 19.0462C30.5853 18.8574 30.0838 18.8178 29.7408 18.8178C29.463 18.8178 29.1831 18.8435 28.9494 18.892C28.11 19.063 27.4199 19.8253 27.3417 20.6667C27.2645 21.5071 27.8071 22.3791 28.6024 22.6945C29.0708 22.8814 29.6345 22.8458 29.9705 22.6085C30.1901 22.4533 30.3696 22.1527 30.3857 21.9085C30.3937 21.7928 30.3666 21.7058 30.3035 21.6475C30.1931 21.5447 30.136 21.5328 30.1169 21.5328C30.0647 21.5328 29.9855 21.6208 29.9073 21.7068C29.7528 21.8769 29.5422 22.1112 29.1711 22.1112C29.0979 22.1112 29.0217 22.1023 28.9454 22.0835C28.8522 22.0628 28.5372 21.9678 28.3818 21.6633C28.2604 21.426 28.2755 21.1363 28.4239 20.8031C28.6496 20.292 29.4208 19.8698 30.0537 19.9351C30.819 19.9964 31.3626 20.4324 31.5481 21.1314C31.7818 22.0113 31.3947 23.0505 30.6445 23.5488C30.3506 23.7445 29.8983 23.8572 29.4048 23.8572C28.8532 23.8572 28.3216 23.7188 27.9475 23.4766C27.775 23.3649 26.2645 22.3317 26.44 20.4878C26.5614 19.1866 27.4831 18.2385 28.9003 17.9507C29.6255 17.8054 30.6555 17.9646 31.4418 18.3126C31.2192 17.9072 31.1259 17.5078 31.163 17.1192C31.2151 16.5962 31.503 16.2067 31.7567 16.0159C31.8149 15.9714 31.8791 15.9308 31.9433 15.8962C30.8531 15.8201 29.7608 15.658 28.6807 15.4118C26.086 16.001 23.7812 16.9888 21.6449 18.4293C23.0911 19.4101 26.8272 22.1448 27.5172 24.6314C28.132 26.8391 27.7168 28.4804 26.2836 29.5086C25.8553 29.8161 25.1573 30 24.4121 30C24.1312 30 23.8604 29.9743 23.6057 29.9239C22.6097 29.7271 21.7201 29.0667 20.9619 27.9623C20.2006 29.0667 19.312 29.7261 18.318 29.9239C18.0643 29.9743 17.7925 30 17.5107 30C16.7675 30 16.0674 29.8161 15.6391 29.5086C14.2059 28.4804 13.7907 26.8391 14.4055 24.6314C15.0825 22.1933 18.5808 19.5772 20.2778 18.4293C18.1405 16.9878 15.8357 16.0001 13.242 15.4118C12.1618 15.658 11.0696 15.8201 9.97941 15.8962C10.0446 15.9318 10.1078 15.9714 10.166 16.0159C10.4197 16.2057 10.7086 16.5943 10.7597 17.1163C10.7988 17.5058 10.7056 17.9063 10.4809 18.3116C11.0706 18.0516 11.7737 17.8954 12.4206 17.8954C12.6393 17.8954 12.8419 17.9142 13.0224 17.9507C14.4406 18.2385 15.3603 19.1866 15.4847 20.4878C15.6602 22.3317 14.1487 23.3649 13.9762 23.4766C13.6021 23.7188 13.0725 23.8572 12.5209 23.8572C12.0275 23.8572 11.5751 23.7445 11.2803 23.5488C10.532 23.0514 10.1439 22.0113 10.3766 21.1304C10.5621 20.4334 11.1077 19.9973 11.871 19.936C11.9081 19.9331 11.9472 19.9311 11.9883 19.9311C12.6182 19.9311 13.2852 20.3137 13.5028 20.8041C13.6503 21.1373 13.6643 21.427 13.5449 21.6633C13.3905 21.9688 13.0746 22.0637 12.9813 22.0855C12.9051 22.1043 12.8278 22.1132 12.7556 22.1132C12.3845 22.1132 12.1729 21.8799 12.0184 21.7088C11.9412 21.6238 11.862 21.5358 11.8108 21.5358C11.7908 21.5358 11.7336 21.5466 11.6243 21.6505C11.5621 21.7088 11.534 21.7968 11.542 21.9125C11.5591 22.1567 11.7376 22.4572 11.9562 22.6115C12.2952 22.8498 12.8559 22.8844 13.3243 22.6975C14.1186 22.3811 14.6612 21.5091 14.585 20.6687C14.5068 19.8273 13.8167 19.065 12.9773 18.894C12.7446 18.8455 12.4627 18.8198 12.1869 18.8198C11.8429 18.8198 11.3414 18.8594 10.9041 19.0482C10.0145 19.4338 8.79491 20.2663 7.71873 21.0009C6.85017 21.5931 6.09995 22.1052 5.67569 22.2842C5.44702 22.4236 5.2053 22.5353 4.97863 22.6095C4.59349 22.7351 4.20033 22.8043 3.80917 22.8171L3.68682 22.8191C2.47223 22.8191 1.37899 22.2644 0.685947 21.2985C0.211544 20.6351 -0.0231476 19.857 0.00292969 19.0502C0.00693893 18.8781 0.360985 17.1489 0.936687 16.6219C1.23557 16.2502 1.90054 15.5749 3.12215 15.0104C2.51836 14.7385 2.01588 14.427 1.62473 14.082C0.329899 12.9361 0.0119553 11.2998 0.00292969 10.9577ZM40.0011 12.5713C40.7764 11.5885 40.8486 10.3566 40.1877 9.43314C39.8767 8.99712 38.9921 8.30604 37.946 8.30604C37.2018 8.30604 36.4988 8.64811 35.8569 9.32141C35.3072 10.3595 35.5861 11.108 35.8027 11.4619C36.0926 11.9385 36.586 12.2539 37.0293 12.2084C37.4476 12.1689 37.7394 12.0482 37.8969 11.8525C38.0925 11.6092 38.0493 11.286 38.0213 11.0843C37.9922 10.8648 37.8487 10.6987 37.595 10.5879C37.3122 10.4653 36.8869 10.0639 37.0484 9.70306C37.1888 9.38173 37.4726 9.20476 37.8427 9.20476C38.0965 9.20476 38.3041 9.28682 38.3603 9.31154C38.9861 9.58146 39.3432 10.2102 39.296 10.9528C39.1777 12.7977 38.1145 13.1843 37.243 13.1843C37.0634 13.1843 36.8698 13.1674 36.6683 13.1358C36.3062 13.0785 35.565 12.7917 35.0916 12.0818C34.6944 11.4866 34.5701 10.7422 34.7205 9.86222C34.4176 10.0511 34.0224 10.3022 33.6985 10.5069C33.4477 10.6651 33.2401 10.7965 33.1599 10.846C32.4598 11.3324 32.2663 11.7437 32.0867 12.2311C31.9644 12.5673 32.1549 13.0261 32.3826 13.1101C32.522 13.1635 32.7617 13.0864 32.8189 13.0112C32.863 12.9519 32.8089 12.8056 32.6725 12.6197C32.5391 12.4378 32.522 12.2084 32.6263 12.0047C32.8389 11.5935 33.4548 11.4768 33.862 11.8377C34.1629 12.1056 34.3233 12.4457 34.3233 12.8214C34.3243 13.2703 34.0987 13.6717 33.876 13.8714C33.7998 13.9386 33.7095 13.9999 33.6142 14.0533C35.4547 14.0731 36.7736 14.3361 37.4385 14.5052C38.964 13.8922 39.6621 13.0014 40.0011 12.5713ZM32.0867 17.7678C32.2663 18.2553 32.4598 18.6656 33.1519 19.1471C33.2401 19.2025 33.4477 19.333 33.6985 19.4921C34.0224 19.6968 34.4176 19.9479 34.7205 20.1368C34.5701 19.2578 34.6934 18.5123 35.0916 17.9171C35.566 17.2082 36.3062 16.9215 36.6683 16.8632C36.8688 16.8316 37.0634 16.8147 37.243 16.8147C38.1145 16.8147 39.1767 17.2013 39.296 19.0453C39.3432 19.7868 38.9861 20.4166 38.3623 20.6875C38.3051 20.7132 38.0975 20.7942 37.8437 20.7942C37.4726 20.7942 37.1898 20.6183 37.0494 20.2969C36.8879 19.9351 37.3132 19.5337 37.597 19.4111C37.8497 19.3013 37.9932 19.1342 38.0263 18.8871C38.0503 18.7131 38.0935 18.3897 37.8979 18.1475C37.7404 17.9517 37.4486 17.8311 37.0303 17.7916C36.588 17.7412 36.0936 18.0615 35.8037 18.5381C35.5871 18.893 35.3082 19.6414 35.8579 20.6786C36.4998 21.3529 37.2018 21.694 37.945 21.694C38.9921 21.694 39.8777 21.0028 40.1897 20.5668C40.8486 19.6424 40.7754 18.4105 40.0011 17.4287C39.6621 16.9977 38.962 16.1068 37.4385 15.4939C36.7736 15.6629 35.4527 15.9259 33.6142 15.9457C33.7105 15.9991 33.7998 16.0604 33.876 16.1276C34.0987 16.3273 34.3253 16.7277 34.3233 17.1776C34.3233 17.5533 34.1629 17.8934 33.862 18.1614C33.4578 18.5183 32.8389 18.4055 32.6263 17.9933C32.522 17.7906 32.5381 17.5612 32.6725 17.3783C32.8089 17.1924 32.864 17.0451 32.8199 16.9868C32.7617 16.9097 32.522 16.8316 32.3816 16.8869C32.1549 16.9729 31.9644 17.4317 32.0867 17.7678ZM35.6472 14.9995C34.2832 14.7681 32.6785 14.7681 30.8521 14.9995C32.6755 15.2309 34.2832 15.2309 35.6472 14.9995ZM26.7911 4.7922C26.9275 4.18217 26.9917 2.78712 26.2475 1.87357C25.8152 1.34165 25.1753 1.07173 24.3469 1.07173C24.1423 1.07173 23.9216 1.08853 23.6929 1.12215C22.8524 1.24376 21.9498 1.95068 21.2778 3.01452C21.1735 3.17666 21.0732 3.25179 20.9608 3.25179C20.8174 3.25179 20.7241 3.12724 20.6559 3.01651C19.983 1.95267 19.0763 1.24376 18.2328 1.12215C17.0684 0.954071 16.1877 1.2151 15.6421 1.89928C14.9541 2.76142 14.9561 4.09121 15.1246 4.77439C15.6933 7.07015 20.2237 10.2795 20.9608 10.7896C21.704 10.2725 26.2966 6.99501 26.7911 4.7922ZM15.1336 25.2068C14.9972 25.8168 14.933 27.2119 15.6772 28.1254C16.2168 28.7889 17.0884 29.043 18.2328 28.8769C19.0713 28.7552 19.9729 28.0473 20.6449 26.9884C20.6991 26.8975 20.8124 26.7462 20.9628 26.7462C21.1193 26.7462 21.2156 26.8985 21.2698 26.9815C21.9418 28.0443 22.8464 28.7533 23.6929 28.8759C24.8503 29.041 25.739 28.7829 26.2836 28.0977C26.9706 27.2346 26.9676 25.9058 26.7991 25.2236C26.2304 22.9279 21.7 19.7185 20.9628 19.2084C20.2217 19.7274 15.6291 23.004 15.1336 25.2068ZM20.9628 17.9824C22.8956 16.6655 24.9657 15.6629 27.1241 14.9995C24.9657 14.3351 22.8946 13.3336 20.9628 12.0166C19.0291 13.3336 16.96 14.3361 14.8017 14.9995C16.96 15.6639 19.0291 16.6655 20.9628 17.9824ZM11.0736 14.9995C9.25126 14.7681 7.64451 14.7681 6.28048 14.9995C7.64451 15.2309 9.24825 15.2299 11.0736 14.9995ZM1.92361 17.4287C1.14933 18.4125 1.0761 19.6444 1.73706 20.5668C2.04797 21.0028 2.93359 21.694 3.98069 21.694C4.72488 21.694 5.42795 21.3529 6.06985 20.6786C6.61947 19.6414 6.34065 18.893 6.12401 18.5381C5.83415 18.0615 5.34171 17.7372 4.89539 17.7916C4.47816 17.8311 4.18729 17.9508 4.02983 18.1475C3.83425 18.3897 3.87838 18.714 3.90546 18.9167C3.93355 19.1342 4.07697 19.3013 4.33072 19.4111C4.61355 19.5347 5.03881 19.9351 4.87834 20.2959C4.73793 20.6173 4.45508 20.7942 4.08399 20.7942C3.82823 20.7942 3.62062 20.7122 3.56345 20.6875C2.94162 20.4166 2.58356 19.7878 2.62969 19.0453C2.75206 17.2023 3.81319 16.8147 4.68176 16.8147C4.86229 16.8147 5.05586 16.8316 5.25646 16.8632C5.62053 16.9205 6.36071 17.2082 6.83311 17.9171C7.23028 18.5123 7.35566 19.2568 7.20421 20.1358C7.53619 19.9291 7.98251 19.6464 8.32151 19.4318L8.76482 19.151C9.46589 18.6646 9.65144 18.2701 9.839 17.7668C9.95935 17.4396 9.76879 16.971 9.54513 16.8879C9.41174 16.8325 9.165 16.9097 9.10783 16.9868C9.0637 17.0461 9.11786 17.1924 9.25426 17.3783C9.38765 17.5602 9.40471 17.7906 9.3004 17.9933C9.08677 18.4055 8.46895 18.5173 8.06676 18.1614C7.76387 17.8924 7.60339 17.5513 7.60339 17.1756C7.60439 16.7267 7.82905 16.3253 8.05271 16.1276C8.12894 16.0604 8.2172 15.9991 8.31449 15.9457C6.47405 15.9249 5.15515 15.6629 4.49018 15.4939C2.96668 16.1059 2.26361 16.9977 1.92361 17.4287ZM4.48818 14.5052C5.15314 14.3361 6.47205 14.0731 8.31248 14.0533C8.21519 13.9999 8.12693 13.9396 8.05071 13.8714C7.82805 13.6737 7.60339 13.2732 7.60138 12.8234C7.60138 12.4467 7.76186 12.1056 8.06476 11.8377C8.46795 11.4797 9.08577 11.5925 9.2984 12.0047C9.40271 12.2074 9.38565 12.4378 9.25225 12.6197C9.11585 12.8056 9.06169 12.9519 9.10482 13.0103C9.16499 13.0874 9.41072 13.1605 9.54412 13.1111C9.76878 13.027 9.95834 12.5584 9.83799 12.2311C9.65144 11.7279 9.46588 11.3334 8.77183 10.8509L8.31147 10.5603C7.97448 10.3467 7.53318 10.0679 7.20421 9.86222C7.35666 10.7412 7.23028 11.4867 6.83311 12.0809C6.36071 12.7898 5.62053 13.0775 5.25646 13.1348C3.6447 13.3869 2.74202 12.6434 2.62969 10.9518C2.58356 10.2093 2.94162 9.58046 3.56345 9.31055C3.62062 9.28484 3.82823 9.20376 4.08399 9.20376C4.45508 9.20376 4.73793 9.38074 4.87834 9.70207C5.03881 10.0639 4.61355 10.4643 4.33072 10.5869C4.07697 10.6977 3.93355 10.8638 3.90145 11.108C3.87839 11.282 3.83225 11.6053 4.02883 11.8495C4.18629 12.0473 4.47815 12.1669 4.89639 12.2074C5.33969 12.2559 5.83516 11.9365 6.12502 11.4609C6.34066 11.106 6.61948 10.3576 6.07086 9.32041C5.42896 8.64612 4.72688 8.30504 3.98168 8.30504C2.93358 8.30504 2.04897 8.99613 1.73805 9.43314C1.0771 10.3566 1.14931 11.5885 1.92461 12.5713C2.26361 13.0014 2.96669 13.8941 4.48818 14.5052Z" fill="#BD8A3C"/>
</svg>
