<svg width="166" height="14" viewBox="0 0 166 14" fill="none" xmlns="http://www.w3.org/2000/svg">
<path d="M96.9244 6.61312C96.7547 4.21944 95.063 2.33203 92.9788 2.33203C90.7811 2.33203 89 4.42195 89 6.99812C89 9.57547 90.7821 11.6654 92.9788 11.6654C95.1765 11.6654 96.9585 9.57547 96.9585 6.99812C96.9585 6.96045 96.9495 6.92629 96.9495 6.88979L109.634 10.1289L166 6.74851L109.634 3.36816L96.9244 6.61312Z" fill="#BD8A3C"/>
<path d="M83 0C79.6867 0 77 3.13447 77 7C77 10.8655 79.6867 14 83 14C86.3133 14 89 10.8655 89 7C89 3.13447 86.3133 0 83 0Z" fill="#BD8A3C"/>
<path d="M73.0192 2.33203C70.934 2.33203 69.2433 4.21944 69.0736 6.61312L56.3663 3.36816L0 6.74851L56.3663 10.1289L69.0505 6.88979C69.0495 6.92629 69.0415 6.96162 69.0415 6.99812C69.0415 9.57547 70.8235 11.6654 73.0212 11.6654C75.2189 11.6654 77 9.57547 77 6.99812C76.999 4.42195 75.2169 2.33203 73.0192 2.33203Z" fill="#BD8A3C"/>
</svg>
