<svg width="166" height="18" viewBox="0 0 166 18" fill="none" xmlns="http://www.w3.org/2000/svg">
<path d="M78.4777 13.4451C78.4095 11.7188 81.4835 12.0046 82.1425 10.3457C82.4745 11.7603 81.9439 13.3477 80.8386 14.2507C79.8778 15.0367 78.5359 14.8948 78.4777 13.4451Z" fill="#BD8A3C"/>
<path d="M83.8558 10.3454C84.5147 12.0054 87.5888 11.7185 87.5206 13.4448C87.4634 14.8956 86.1205 15.0364 85.1596 14.2504C84.0544 13.3474 83.5238 11.7589 83.8558 10.3454Z" fill="#BD8A3C"/>
<path d="M83.9801 17.9739C83.5769 17.8901 83.259 17.5877 83.0033 17.1683C82.7475 17.5877 82.4296 17.8901 82.0264 17.9739C81.7144 18.0392 81.3173 17.9895 81.1006 17.8269C80.542 17.4065 80.4878 16.7427 80.6754 16.0364C80.9743 14.9118 82.4396 14.2346 83.0033 13.2208C83.4827 14.2025 85.0322 14.9108 85.3311 16.0364C85.5187 16.7437 85.4645 17.4075 84.9058 17.8269C84.6882 17.9895 84.291 18.0381 83.9801 17.9739Z" fill="#BD8A3C"/>
<path d="M90.2083 12.8882C89.0839 13.2569 88.0138 12.4637 87.6588 11.7833C87.3539 11.1993 87.2836 9.77954 88.5614 9.23795C89.5674 8.81131 90.2123 10.0343 89.5583 10.4972C89.2835 10.6918 88.9676 10.9776 89.0599 11.2873C89.1471 11.5783 89.5383 11.8475 89.8652 11.8413C90.3918 11.832 90.9665 11.1061 90.9635 10.4537C90.9585 9.57346 90.8752 8.85169 90.131 7.7623C89.8592 7.404 88.4992 5.57213 88.089 5.04607C87.7099 9.07329 84.8896 9.34149 84.003 9.17166C83.6168 9.09814 83.2869 8.99459 83.004 8.87032C82.7222 8.99562 82.3912 9.09814 82.0051 9.17166C81.1185 9.34149 78.2982 9.07329 77.9191 5.04607C77.5088 5.57213 76.1488 7.404 75.877 7.7623C75.1328 8.85273 75.0486 9.5745 75.0446 10.4537C75.0416 11.105 75.6163 11.8309 76.1428 11.8413C76.4698 11.8465 76.8609 11.5772 76.9482 11.2873C77.0405 10.9776 76.7255 10.6918 76.4497 10.4972C75.7958 10.0343 76.4407 8.81131 77.4467 9.23795C78.7244 9.77954 78.6542 11.2003 78.3493 11.7833C77.9943 12.4637 76.9241 13.2579 75.7998 12.8882C75.1399 12.6718 73.6735 11.5658 74.7337 8.84962C73.9484 10.1523 72.143 11.3422 70.7941 11.54C68.9195 11.8133 67.2185 11.0595 66.4182 9.28869C65.4884 7.23003 66.4202 5.25421 66.9748 4.49619C67.717 3.4824 69.3929 2.86418 70.3758 3.12306C72.452 3.67086 73.7478 6.98875 71.3196 8.11956C70.5463 8.47993 69.4361 8.30078 68.9416 7.75816C68.1222 6.85931 68.6979 6.24212 68.9717 6.05883C70.0338 5.34741 70.5834 7.04052 71.1481 5.89521C71.436 5.31116 70.7439 4.50344 70.0509 4.29944C69.3689 4.09854 68.5174 4.34501 67.8835 4.92595C66.8655 5.85898 66.5285 7.52412 67.0982 8.79991C67.6689 10.0757 69.1151 10.8896 70.4631 10.695C71.2835 10.5759 72.5703 10.1389 73.3797 9.34977C74.6053 8.15476 76.1368 5.8569 77.3674 4.10166C77.2019 4.18968 77.0254 4.26941 76.8379 4.33362C76.5029 4.44545 76.1368 4.51795 75.7577 4.50656C75.6634 4.50449 75.5681 4.48999 75.4739 4.4817C75.3796 4.47342 75.2843 4.45271 75.188 4.42992C74.9964 4.38125 74.7888 4.29945 74.6053 4.1669C74.5622 4.13583 74.519 4.10372 74.4739 4.07162C74.4348 4.03434 74.3947 3.99603 74.3546 3.95668C74.2703 3.88109 74.2061 3.78788 74.1359 3.69675C74.0988 3.65119 74.0757 3.59941 74.0456 3.54971C74.0186 3.49897 73.9855 3.44926 73.9644 3.39541C73.9213 3.28668 73.8721 3.17899 73.8481 3.06197C73.7819 2.83416 73.7748 2.58977 73.7939 2.3547C73.827 2.12585 73.8852 1.90734 73.9805 1.72716C74.162 1.36058 74.4268 1.12551 74.6434 1.02921C74.7507 0.977431 74.85 0.963967 74.9272 0.975358C75.0045 0.986749 75.0596 1.0261 75.0957 1.09341C75.1318 1.16072 75.1409 1.23527 75.1328 1.31086C75.1288 1.34918 75.1198 1.3875 75.1068 1.42582C75.0957 1.4662 75.0827 1.50865 75.0656 1.55008C75.0005 1.71783 74.9042 1.91149 74.847 2.12688C74.8129 2.23251 74.8029 2.34537 74.7939 2.45411C74.7969 2.55973 74.8009 2.6695 74.836 2.77512C74.86 2.88385 74.9162 2.97809 74.9664 3.06507C75.0285 3.1417 75.0887 3.21523 75.1599 3.25355C75.2241 3.30429 75.3164 3.33743 75.4237 3.36953C75.531 3.4037 75.6604 3.41302 75.7828 3.43477C76.0345 3.45341 76.2973 3.43581 76.56 3.3861C76.8228 3.3395 77.0796 3.24422 77.3243 3.14378C77.569 3.04333 77.7977 2.90768 78.0123 2.78342C78.2661 2.62601 78.4948 2.46654 78.6923 2.32364C78.9551 2.00676 79.3092 1.58944 79.3092 1.58944C79.3092 1.58944 79.7665 1.14932 80.0283 0.958783C80.9289 0.303285 81.962 -0.0125532 83.004 0.00608635C84.0461 -0.0115175 85.0791 0.303285 85.9798 0.958783C86.1653 1.0934 86.8082 1.77893 87.2566 2.2822C87.4682 2.43443 87.7159 2.61048 87.9957 2.78342C88.2104 2.90872 88.439 3.04333 88.6838 3.14378C88.9285 3.24422 89.1852 3.3395 89.448 3.3861C89.7098 3.43581 89.9726 3.45341 90.2243 3.43477C90.3467 3.41302 90.476 3.4037 90.5834 3.36953C90.6907 3.33743 90.783 3.30532 90.8471 3.25355C90.9174 3.21523 90.9785 3.1417 91.0407 3.06507C91.0909 2.97809 91.147 2.88282 91.1711 2.77512C91.2062 2.6695 91.2102 2.55973 91.2132 2.45411C91.2042 2.34537 91.1942 2.23251 91.1601 2.12688C91.1039 1.91149 91.0066 1.71783 90.9414 1.55008C90.9244 1.50865 90.9113 1.4662 90.9003 1.42582C90.8873 1.3875 90.8792 1.34918 90.8742 1.31086C90.8662 1.23527 90.8742 1.16072 90.9103 1.09341C90.9464 1.0261 91.0016 0.986749 91.0788 0.975358C91.156 0.962932 91.2553 0.976396 91.3627 1.02921C91.5793 1.12551 91.8451 1.36058 92.0266 1.72716C92.1219 1.90734 92.1811 2.12585 92.2132 2.3547C92.2322 2.58977 92.2252 2.83416 92.159 3.06197C92.1349 3.17795 92.0858 3.28668 92.0427 3.39541C92.0216 3.44926 91.9885 3.49897 91.9614 3.54971C91.9313 3.59941 91.9083 3.65222 91.8712 3.69675C91.8009 3.78892 91.7378 3.88212 91.6535 3.95668C91.6134 3.995 91.5733 4.0333 91.5342 4.07162C91.49 4.10372 91.4459 4.13583 91.4028 4.1669C91.2182 4.30048 91.0116 4.38229 90.8201 4.42992C90.7238 4.45271 90.6285 4.47342 90.5342 4.4817C90.4399 4.49102 90.3447 4.50449 90.2504 4.50656C89.8713 4.51795 89.5052 4.44545 89.1702 4.33362C88.9826 4.26941 88.8061 4.18968 88.6406 4.10166C89.8713 5.8569 91.4038 8.15476 92.6294 9.34977C93.4388 10.1389 94.7256 10.5759 95.546 10.695C96.894 10.8907 98.3402 10.0757 98.9109 8.79991C99.4816 7.52412 99.1436 5.85898 98.1256 4.92595C97.4907 4.34398 96.6402 4.09854 95.9582 4.29944C95.2652 4.50344 94.5721 5.31116 94.861 5.89521C95.4266 7.04052 95.9752 5.34845 97.0374 6.05883C97.3122 6.24212 97.8869 6.85931 97.0675 7.75816C96.573 8.30078 95.4627 8.47993 94.6895 8.11956C92.2613 6.98772 93.5571 3.66983 95.6332 3.12306C96.6151 2.86418 98.2911 3.48136 99.0332 4.49619C99.5879 5.25421 100.52 7.23107 99.5899 9.28869C98.7895 11.0605 97.0885 11.8144 95.214 11.54C93.865 11.3432 92.0597 10.1523 91.2744 8.84962C92.3335 11.5658 90.8682 12.6718 90.2083 12.8882ZM83.003 7.60386C83.7432 6.83445 83.2829 5.99774 83.1214 5.67154C83.0883 5.60423 83.0472 5.54313 83.003 5.48514C82.9589 5.54313 82.9188 5.6032 82.8847 5.67154C82.7232 5.99774 82.2629 6.83445 83.003 7.60386ZM87.2225 4.27874C86.8794 3.45445 85.8444 1.35748 83.003 1.35748C80.1617 1.35748 79.1266 3.45548 78.7836 4.27874C78.3443 7.38019 80.7544 8.69325 82.0673 8.21483C81.1466 7.19793 81.4866 5.73367 81.6801 5.03468C81.6892 5.00154 81.7002 4.96945 81.7102 4.93735C81.4023 4.81722 81.1044 4.58836 81.1225 4.31601C81.1807 3.43166 82.0823 3.30842 82.4554 3.33742C82.651 3.35192 82.8335 3.39541 83.003 3.46065C83.1725 3.39541 83.3551 3.35192 83.5506 3.33742C83.9237 3.30946 84.8264 3.4327 84.8836 4.31601C84.9016 4.58836 84.6037 4.81619 84.2958 4.93735C84.3059 4.96945 84.3169 5.00154 84.3259 5.03468C84.5195 5.73367 84.8595 7.19793 83.9388 8.21483C85.2517 8.69325 87.6617 7.38019 87.2225 4.27874Z" fill="#BD8A3C"/>
<path d="M93.2891 1.23721C93.2891 0.241018 97.0722 1.09846 97.8876 1.09846C98.703 1.09846 124.983 1.12641 144.571 0.731874C153.616 0.549618 163.205 -1.23462 163.205 1.54166C163.205 4.31692 159.849 3.0463 144.379 2.3732C124.738 1.51784 98.9999 1.45882 97.9799 1.45882C96.9619 1.45986 93.2891 2.25515 93.2891 1.23721Z" fill="#BD8A3C"/>
<path d="M164.896 2.77129C164.286 2.77129 163.793 2.26076 163.793 1.63219C163.793 1.00258 164.286 0.493085 164.896 0.493085C165.505 0.493085 165.999 1.00361 165.999 1.63219C165.999 2.26076 165.506 2.77129 164.896 2.77129Z" fill="#BD8A3C"/>
<path d="M68.0181 1.45882C66.9981 1.45882 41.2593 1.51784 21.6194 2.3732C6.14886 3.0463 2.79297 4.31692 2.79297 1.54166C2.79297 -1.23359 12.3832 0.550638 21.4269 0.731858C41.0146 1.12536 67.295 1.09844 68.1104 1.09844C68.9258 1.09844 72.7089 0.241018 72.7089 1.23721C72.7099 2.25411 69.0381 1.45882 68.0181 1.45882Z" fill="#BD8A3C"/>
<path d="M1.10325 2.77129C0.494459 2.77129 0 2.26076 0 1.63219C0 1.00258 0.494459 0.493085 1.10325 0.493085C1.71305 0.493085 2.2065 1.00361 2.2065 1.63219C2.2065 2.26076 1.71305 2.77129 1.10325 2.77129Z" fill="#BD8A3C"/>
</svg>
