<svg width="175" height="200" viewBox="0 0 175 200" fill="none" xmlns="http://www.w3.org/2000/svg">
<path d="M87.5 0.5C105.44 0.5 121.166 6.00745 130.274 14.2764L130.417 14.4062H135.581C140.889 14.4063 145.671 15.6937 149.108 17.749C152.556 19.8104 154.574 22.5878 154.574 25.5605V27.3555H155.507C160.814 27.3555 165.596 28.643 169.033 30.6982C172.481 32.7595 174.499 35.5373 174.5 38.5098V161.488C174.5 164.461 172.482 167.239 169.034 169.301C165.597 171.356 160.815 172.644 155.507 172.644H154.574V174.438C154.574 177.411 152.556 180.189 149.108 182.25C145.671 184.305 140.889 185.593 135.581 185.593H130.417L130.274 185.723C121.166 193.993 105.44 199.5 87.5 199.5C69.56 199.5 53.8343 193.992 44.7256 185.723L44.583 185.593H39.4189C34.1108 185.593 29.3291 184.305 25.8916 182.25C22.4442 180.189 20.4259 177.411 20.4258 174.438V172.644H19.4932C14.185 172.644 9.40337 171.356 5.96582 169.301C2.51807 167.239 0.500035 164.461 0.5 161.488V38.5107L0.505859 38.2324C0.627601 35.3647 2.62588 32.6952 5.96582 30.6982C9.40337 28.6429 14.185 27.3555 19.4932 27.3555H20.4258V25.5605C20.4259 22.5878 22.4442 19.8104 25.8916 17.749C29.3291 15.6937 34.1108 14.4063 39.4189 14.4062H44.583L44.7256 14.2764C53.8343 6.00745 69.5599 0.5 87.5 0.5Z" stroke="#BD8A3C"/>
<mask id="mask0_680_17760" style="mask-type:alpha" maskUnits="userSpaceOnUse" x="6" y="7" width="163" height="186">
<path d="M150.844 31.976H150.44V30.7716C150.44 24.7852 142.312 19.9325 132.284 19.9325H127.654C119.061 12.1438 104.29 7 87.5 7C70.7099 7 55.9388 12.1438 47.3459 19.9325H42.7161C32.6885 19.9325 24.5598 24.7852 24.5598 30.7716V31.976H24.1563C14.1287 31.976 6 36.8287 6 42.8151V157.184C6 163.17 14.1287 168.023 24.1563 168.023H24.5598V169.227C24.5598 175.214 32.6885 180.067 42.7161 180.067H47.3459C55.9388 187.855 70.7099 193 87.5 193C104.29 193 119.061 187.856 127.654 180.067H132.284C142.312 180.067 150.44 175.214 150.44 169.227V168.023H150.844C160.871 168.023 169 163.17 169 157.184V42.8141C168.998 36.8287 160.87 31.976 150.844 31.976Z" fill="black"/>
</mask>
<g mask="url(#mask0_680_17760)">
<rect x="-10" y="4" width="195" height="198" fill="#8C8C8C"/>
</g>
</svg>
