<svg width="225" height="61" viewBox="0 0 225 61" fill="none" xmlns="http://www.w3.org/2000/svg">
<path d="M116.886 35.8327C115.233 35.8327 113.772 35.4768 112.5 34.7649C111.229 34.053 110.238 33.0615 109.526 31.7903C108.839 30.5191 108.496 29.0445 108.496 27.3665C108.496 25.6122 108.865 24.0359 109.602 22.6376C110.365 21.2393 111.382 20.1333 112.653 19.3198C113.924 18.5062 115.348 18.0994 116.924 18.0994C118.831 18.0994 120.356 18.7096 121.5 19.9299C122.645 21.1503 123.217 22.7901 123.217 24.8495C123.217 25.1037 123.204 25.3453 123.178 25.5741C123.178 25.7775 123.153 25.9427 123.102 26.0698H111.394L111.471 25.1927H117.153C119.492 25.1927 120.661 24.3156 120.661 22.5613C120.661 21.5698 120.293 20.7435 119.556 20.0825C118.818 19.396 117.903 19.0528 116.81 19.0528C115.233 19.0528 113.962 19.7647 112.996 21.1884C112.03 22.6122 111.547 24.4936 111.547 26.8326C111.547 29.2479 112.068 31.1674 113.111 32.5911C114.153 33.9895 115.577 34.6886 117.382 34.6886C118.602 34.6886 119.67 34.3454 120.585 33.6589C121.526 32.9725 122.238 31.981 122.721 30.6843L123.636 31.0275C122.568 34.231 120.318 35.8327 116.886 35.8327Z" fill="#BA8845"/>
<path d="M133.115 35.8327C131.742 35.8327 130.7 35.4259 129.988 34.6123C129.276 33.7733 128.92 32.5784 128.92 31.0275V19.7392H126.098V18.7858L127.128 18.7096C128.119 18.6333 128.895 18.2265 129.454 17.4892C130.039 16.7519 130.42 15.646 130.598 14.1714H131.59V31.1801C131.59 32.2733 131.78 33.1123 132.162 33.6971C132.569 34.2564 133.153 34.5361 133.916 34.5361C134.501 34.5361 134.997 34.3581 135.403 34.0022C135.836 33.6208 136.255 33.0233 136.662 32.2098L137.501 32.6293C137.374 32.9598 137.208 33.2903 137.005 33.6208C136.802 33.9259 136.573 34.2183 136.319 34.4979C135.505 35.3878 134.437 35.8327 133.115 35.8327ZM131.361 19.7392V18.7858H136.471V19.7392H131.361Z" fill="#BA8845"/>
<path d="M138.449 35.5276V34.6505L139.059 34.5742C139.898 34.4725 140.509 34.3327 140.89 34.1547C141.271 33.9513 141.513 33.5954 141.614 33.0869C141.742 32.5784 141.805 31.8157 141.805 30.7987V12.3027C141.805 11.1586 141.576 10.3578 141.119 9.90012C140.661 9.44249 139.86 9.21367 138.716 9.21367H138.449V8.33654C139.771 8.33654 140.89 8.31112 141.805 8.26027C142.72 8.184 143.61 8.05688 144.475 7.87891V30.7987C144.475 31.8157 144.526 32.5784 144.627 33.0869C144.754 33.5954 145.009 33.9513 145.39 34.1547C145.797 34.3327 146.407 34.4725 147.22 34.5742L147.831 34.6505V35.5276L143.14 35.4132L138.449 35.5276ZM150.271 35.5276V34.6505L150.882 34.5742C151.721 34.4725 152.331 34.3327 152.712 34.1547C153.093 33.9513 153.335 33.5954 153.437 33.0869C153.564 32.5784 153.627 31.8157 153.627 30.7987V23.1715C153.627 21.9511 153.297 20.9977 152.636 20.3113C152 19.5994 151.123 19.2435 150.004 19.2435C148.759 19.2435 147.602 19.6503 146.534 20.4638C145.466 21.252 144.716 22.2817 144.284 23.5529V21.7223C145.021 20.5782 145.949 19.6884 147.068 19.0528C148.212 18.4172 149.471 18.0994 150.843 18.0994C152.521 18.0994 153.843 18.557 154.81 19.4723C155.801 20.3621 156.297 21.5952 156.297 23.1715V30.7987C156.297 31.8157 156.348 32.5784 156.449 33.0869C156.577 33.5954 156.831 33.9513 157.212 34.1547C157.619 34.3327 158.229 34.4725 159.043 34.5742L159.653 34.6505V35.5276L154.962 35.4132L150.271 35.5276Z" fill="#BA8845"/>
<path d="M172.963 35.5276V34.6505L173.574 34.5742C174.413 34.4725 175.023 34.3327 175.404 34.1547C175.786 33.9513 176.027 33.5954 176.129 33.0869C176.256 32.5784 176.319 31.8157 176.319 30.7987V23.1715C176.319 21.9511 175.989 20.9977 175.328 20.3113C174.692 19.5994 173.815 19.2435 172.696 19.2435C171.451 19.2435 170.307 19.6376 169.264 20.4257C168.222 21.2138 167.485 22.2308 167.052 23.4766L166.976 21.7223C167.713 20.5782 168.641 19.6884 169.76 19.0528C170.904 18.4172 172.163 18.0994 173.535 18.0994C175.213 18.0994 176.536 18.557 177.502 19.4723C178.493 20.3621 178.989 21.5952 178.989 23.1715V30.7987C178.989 31.8157 179.04 32.5784 179.141 33.0869C179.269 33.5954 179.523 33.9513 179.904 34.1547C180.311 34.3327 180.921 34.4725 181.735 34.5742L182.345 34.6505V35.5276L177.654 35.4132L172.963 35.5276ZM161.141 35.5276V34.6505L161.751 34.5742C162.59 34.4725 163.201 34.3327 163.582 34.1547C163.963 33.9513 164.205 33.5954 164.307 33.0869C164.434 32.5784 164.497 31.8157 164.497 30.7987V22.752C164.497 21.6079 164.268 20.8071 163.811 20.3494C163.353 19.8918 162.552 19.663 161.408 19.663H161.141V18.7858C162.463 18.7858 163.582 18.7604 164.497 18.7096C165.413 18.6333 166.302 18.5062 167.167 18.3282V30.7987C167.167 31.8157 167.218 32.5784 167.319 33.0869C167.446 33.5954 167.701 33.9513 168.082 34.1547C168.489 34.3327 169.099 34.4725 169.913 34.5742L170.523 34.6505V35.5276L165.832 35.4132L161.141 35.5276Z" fill="#BA8845"/>
<path d="M183.822 35.5276V34.6505L184.432 34.5742C185.271 34.4725 185.881 34.3327 186.262 34.1547C186.644 33.9513 186.885 33.5954 186.987 33.0869C187.114 32.5784 187.178 31.8157 187.178 30.7987V22.752C187.178 21.6079 186.949 20.8071 186.491 20.3494C186.034 19.8918 185.233 19.663 184.089 19.663H183.822V18.7858C185.093 18.7858 186.186 18.7604 187.101 18.7096C188.042 18.6333 188.957 18.5062 189.847 18.3282V30.7987C189.847 31.8157 189.898 32.5784 190 33.0869C190.127 33.5954 190.381 33.9513 190.763 34.1547C191.169 34.3327 191.779 34.4725 192.593 34.5742L193.203 34.6505V35.5276L188.512 35.4132L183.822 35.5276ZM187.788 14.2858C187.127 14.2858 186.606 14.057 186.224 13.5993C185.843 13.1417 185.652 12.5951 185.652 11.9595C185.652 11.2984 185.843 10.7518 186.224 10.3196C186.606 9.86199 187.127 9.63317 187.788 9.63317C188.525 9.63317 189.059 9.86199 189.39 10.3196C189.746 10.7518 189.924 11.2984 189.924 11.9595C189.924 12.5951 189.746 13.1417 189.39 13.5993C189.059 14.057 188.525 14.2858 187.788 14.2858Z" fill="#BA8845"/>
<path d="M203.659 35.8327C202.032 35.8327 200.583 35.4768 199.312 34.7649C198.066 34.053 197.087 33.0615 196.375 31.7903C195.663 30.4936 195.308 29.019 195.308 27.3665C195.308 25.6122 195.689 24.0359 196.452 22.6376C197.24 21.2393 198.308 20.1333 199.655 19.3198C201.003 18.5062 202.515 18.0994 204.193 18.0994C205.236 18.0994 206.189 18.2519 207.053 18.557C207.918 18.8621 208.604 19.2816 209.113 19.8155C209.621 20.324 209.875 20.896 209.875 21.5316C209.875 22.0656 209.698 22.5232 209.342 22.9045C208.986 23.2605 208.541 23.4385 208.007 23.4385C207.447 23.4385 206.977 23.2732 206.596 22.9427C206.24 22.5867 206.062 22.1673 206.062 21.6842C206.062 21.5571 206.075 21.43 206.1 21.3028C206.125 21.1757 206.164 20.9977 206.214 20.7689C206.265 20.6164 206.303 20.4893 206.329 20.3876C206.354 20.2859 206.367 20.1842 206.367 20.0825C206.367 19.7265 206.164 19.4723 205.757 19.3198C205.35 19.1418 204.854 19.0528 204.269 19.0528C202.49 19.0528 201.053 19.7901 199.96 21.2647C198.892 22.7139 198.358 24.6334 198.358 27.0233C198.358 29.3368 198.88 31.1801 199.922 32.553C200.964 33.9005 202.401 34.5742 204.231 34.5742C205.452 34.5742 206.532 34.2437 207.473 33.5827C208.414 32.9216 209.075 31.9682 209.456 30.7225L210.371 31.0275C209.964 32.5784 209.176 33.7733 208.007 34.6123C206.837 35.4259 205.388 35.8327 203.659 35.8327Z" fill="#BA8845"/>
<path d="M219.552 35.8327C218.331 35.8327 217.098 35.553 215.852 34.9937C215.598 34.8666 215.382 34.7776 215.204 34.7268C215.052 34.6505 214.924 34.6123 214.823 34.6123C214.696 34.6123 214.594 34.6632 214.518 34.7649C214.467 34.8666 214.403 35.0827 214.327 35.4132H213.45L213.602 32.8962L213.717 29.6546H214.556L214.594 30.303C214.645 31.142 214.899 31.9047 215.357 32.5911C215.84 33.2776 216.463 33.8369 217.225 34.2691C217.988 34.6759 218.802 34.8793 219.666 34.8793C220.658 34.8793 221.458 34.6123 222.069 34.0784C222.704 33.5445 223.022 32.8454 223.022 31.981C223.022 31.2437 222.73 30.5826 222.145 29.9979C221.586 29.4131 220.67 28.8665 219.399 28.358L217.988 27.786C216.59 27.2266 215.573 26.5783 214.937 25.841C214.327 25.1037 214.022 24.1885 214.022 23.0952C214.022 22.1291 214.238 21.2774 214.67 20.5401C215.102 19.7774 215.7 19.1799 216.463 18.7477C217.251 18.3155 218.128 18.0994 219.094 18.0994C219.552 18.0994 219.971 18.1502 220.352 18.2519C220.734 18.3282 221.166 18.4808 221.649 18.7096C222.005 18.8875 222.272 18.9765 222.45 18.9765C222.73 18.9765 222.946 18.7096 223.098 18.1757L223.937 18.2138L223.785 20.6927V23.3622H222.908C222.73 22.0147 222.285 20.9596 221.573 20.1969C220.886 19.4342 220.022 19.0528 218.98 19.0528C218.115 19.0528 217.403 19.307 216.844 19.8155C216.285 20.324 216.005 20.985 216.005 21.7986C216.005 22.5105 216.272 23.1461 216.806 23.7054C217.34 24.2647 218.179 24.7732 219.323 25.2309L220.848 25.841C222.272 26.4004 223.302 27.0741 223.937 27.8622C224.598 28.625 224.929 29.5911 224.929 30.7606C224.929 32.2606 224.42 33.481 223.403 34.4217C222.412 35.3624 221.128 35.8327 219.552 35.8327Z" fill="#BA8845"/>
<path d="M59.6086 35.8312C58.5154 35.8312 57.7272 35.488 57.2442 34.8016C56.7865 34.1151 56.5577 32.9965 56.5577 31.4456V23.2082C56.5577 21.7082 56.2653 20.6403 55.6806 20.0047C55.1212 19.3691 54.1678 19.0513 52.8204 19.0513C51.9051 19.0513 51.1678 19.1657 50.6085 19.3946C50.0746 19.6234 49.8076 19.9285 49.8076 20.3098C49.8076 20.4115 49.8203 20.5259 49.8458 20.6531C49.8966 20.7548 49.9348 20.8819 49.9602 21.0344C50.0873 21.5429 50.1509 21.8988 50.1509 22.1022C50.1509 22.509 49.9856 22.865 49.6551 23.17C49.35 23.4497 48.9432 23.5895 48.4347 23.5895C47.9517 23.5895 47.5576 23.4243 47.2525 23.0938C46.9474 22.7378 46.7949 22.2929 46.7949 21.759C46.7949 21.0471 47.0746 20.4242 47.6339 19.8903C48.2186 19.331 49.0068 18.8988 49.9983 18.5937C51.0153 18.2632 52.1721 18.0979 53.4687 18.0979C55.4772 18.0979 56.9391 18.581 57.8543 19.5471C58.7696 20.4878 59.2272 22.0132 59.2272 24.1234V30.988C59.2272 32.2846 59.3289 33.1999 59.5323 33.7338C59.7357 34.2422 60.0789 34.4965 60.562 34.4965C60.9179 34.4965 61.2357 34.3821 61.5154 34.1533C61.8205 33.899 62.0366 33.5685 62.1637 33.1617L62.8501 33.4287C62.3925 35.0304 61.312 35.8312 59.6086 35.8312ZM50.3797 35.8312C49.0831 35.8312 48.0407 35.5134 47.2525 34.8778C46.4644 34.2422 46.0703 33.416 46.0703 32.399C46.0703 31.4329 46.4644 30.5176 47.2525 29.6532C48.0407 28.7633 49.2992 27.8481 51.028 26.9074C51.7907 26.4752 52.6424 26.0557 53.5831 25.6489C54.5238 25.2167 55.5662 24.7972 56.7102 24.3904L56.7484 25.115C54.2823 26.132 52.3755 27.2506 51.028 28.471C49.7059 29.6913 49.0449 30.899 49.0449 32.0939C49.0449 32.8312 49.261 33.4032 49.6932 33.81C50.1254 34.2168 50.7356 34.4202 51.5238 34.4202C52.2356 34.4202 52.9348 34.2422 53.6212 33.8863C54.3331 33.5049 54.956 33.0219 55.4899 32.4371C56.0492 31.8269 56.4433 31.1659 56.6721 30.454L56.9009 31.7125C56.2653 32.9837 55.3628 33.988 54.1933 34.7253C53.0492 35.4626 51.778 35.8312 50.3797 35.8312Z" fill="#420001"/>
<path d="M75.749 35.5262V34.649L76.3592 34.5728C77.1982 34.4711 77.8084 34.3312 78.1897 34.1533C78.5711 33.9499 78.8126 33.5939 78.9143 33.0854C79.0414 32.577 79.105 31.8142 79.105 30.7973V23.17C79.105 21.9497 78.7745 20.9963 78.1135 20.3098C77.4779 19.598 76.6007 19.242 75.4821 19.242C74.2363 19.242 73.0922 19.6361 72.0498 20.4242C71.0075 21.2124 70.2702 22.2294 69.838 23.4751L69.7617 21.7209C70.499 20.5768 71.427 19.6869 72.5456 19.0513C73.6897 18.4157 74.9482 18.0979 76.3211 18.0979C77.9991 18.0979 79.3211 18.5556 80.2872 19.4708C81.2787 20.3607 81.7745 21.5937 81.7745 23.17V30.7973C81.7745 31.8142 81.8254 32.577 81.9271 33.0854C82.0542 33.5939 82.3084 33.9499 82.6898 34.1533C83.0966 34.3312 83.7067 34.4711 84.5203 34.5728L85.1305 34.649V35.5262L80.4398 35.4117L75.749 35.5262ZM63.9269 35.5262V34.649L64.5371 34.5728C65.3761 34.4711 65.9862 34.3312 66.3676 34.1533C66.7489 33.9499 66.9905 33.5939 67.0922 33.0854C67.2193 32.577 67.2828 31.8142 67.2828 30.7973V22.7505C67.2828 21.6065 67.054 20.8056 66.5964 20.348C66.1388 19.8903 65.3379 19.6615 64.1938 19.6615H63.9269V18.7844C65.2489 18.7844 66.3676 18.759 67.2828 18.7081C68.1981 18.6318 69.0879 18.5047 69.9524 18.3268V30.7973C69.9524 31.8142 70.0032 32.577 70.1049 33.0854C70.232 33.5939 70.4863 33.9499 70.8676 34.1533C71.2744 34.3312 71.8846 34.4711 72.6982 34.5728L73.3083 34.649V35.5262L68.6176 35.4117L63.9269 35.5262Z" fill="#420001"/>
<path d="M94.8829 46.6238C93.1286 46.6238 91.5777 46.3695 90.2303 45.8611C88.8828 45.3526 87.8277 44.6407 87.065 43.7254C86.3023 42.8102 85.9209 41.7678 85.9209 40.5983C85.9209 39.7338 86.1116 39.0347 86.4929 38.5008C86.8997 37.9923 87.4209 37.7381 88.0565 37.7381C88.5396 37.7381 88.9209 37.8779 89.2006 38.1576C89.4803 38.4372 89.6201 38.8059 89.6201 39.2635C89.6201 39.4669 89.5947 39.6576 89.5438 39.8355C89.493 40.0135 89.3659 40.2805 89.1625 40.6364C88.832 41.1703 88.6667 41.6788 88.6667 42.1618C88.6667 43.2551 89.2133 44.1068 90.3065 44.717C91.4252 45.3526 92.9379 45.6704 94.8447 45.6704C97.1329 45.6704 98.9634 45.2127 100.336 44.2975C101.709 43.4076 102.396 42.2 102.396 40.6745C102.396 39.5559 101.963 38.7169 101.099 38.1576C100.235 37.6236 98.8236 37.3058 96.8659 37.2041L92.9761 37.0135C91.1964 36.9118 89.8362 36.594 88.8955 36.0601C87.9803 35.5516 87.5226 34.7761 87.5226 33.7338C87.5226 32.7676 87.9167 31.8905 88.7048 31.1024C89.5184 30.3142 90.5608 29.7676 91.832 29.4625L93.0142 29.9201C91.9972 30.0981 91.2091 30.3905 90.6498 30.7973C90.0904 31.2041 89.8108 31.6998 89.8108 32.2846C89.8108 32.8948 90.1286 33.3524 90.7642 33.6575C91.4252 33.9626 92.4549 34.1405 93.8532 34.1914L95.5312 34.2677C98.5821 34.3948 100.781 34.8778 102.129 35.7168C103.476 36.5558 104.15 37.8525 104.15 39.6067C104.15 41.0305 103.769 42.2635 103.006 43.3059C102.243 44.3737 101.163 45.1873 99.7643 45.7466C98.3914 46.3314 96.7642 46.6238 94.8829 46.6238ZM95.1498 30.3778C93.8278 30.3778 92.6328 30.1108 91.565 29.5769C90.4972 29.0176 89.6455 28.2803 89.0099 27.365C88.3997 26.4243 88.0947 25.3819 88.0947 24.2379C88.0947 23.0683 88.3997 22.026 89.0099 21.1107C89.6455 20.1954 90.4972 19.4708 91.565 18.9369C92.6328 18.3776 93.8278 18.0979 95.1498 18.0979C96.4719 18.0979 97.6541 18.3776 98.6965 18.9369C99.7643 19.4708 100.616 20.2081 101.252 21.1488C101.887 22.0641 102.205 23.0938 102.205 24.2379C102.205 25.3819 101.887 26.4243 101.252 27.365C100.641 28.2803 99.8024 29.0176 98.7346 29.5769C97.6668 30.1108 96.4719 30.3778 95.1498 30.3778ZM95.1498 29.4244C96.4973 29.4244 97.5142 28.9795 98.2007 28.0896C98.9126 27.1998 99.2685 25.9158 99.2685 24.2379C99.2685 22.5599 98.9126 21.2759 98.2007 20.3861C97.5142 19.4963 96.4973 19.0513 95.1498 19.0513C93.8278 19.0513 92.8108 19.4963 92.0989 20.3861C91.3871 21.2759 91.0311 22.5599 91.0311 24.2379C91.0311 25.9158 91.3871 27.1998 92.0989 28.0896C92.8108 28.9795 93.8278 29.4244 95.1498 29.4244ZM104.722 20.9963C104.29 20.9963 103.921 20.8565 103.616 20.5768C103.311 20.2717 103.108 19.8776 103.006 19.3946C102.955 19.0386 102.828 18.7717 102.624 18.5937C102.446 18.4157 102.218 18.3268 101.938 18.3268C101.582 18.3268 101.213 18.4666 100.832 18.7463C100.451 19.0259 100.12 19.4073 99.8405 19.8903L99.116 19.3946C99.5482 18.7081 100.146 18.1615 100.908 17.7547C101.671 17.3479 102.485 17.1445 103.349 17.1445C104.239 17.1445 104.963 17.3479 105.523 17.7547C106.082 18.1615 106.362 18.6827 106.362 19.3183C106.362 19.8013 106.197 20.2081 105.866 20.5386C105.561 20.8437 105.18 20.9963 104.722 20.9963Z" fill="#420001"/>
<path d="M0.768413 42.2392C7.45372 27.974 27.4111 39.7053 35.3251 45.6631C45.9159 53.6389 53.6004 57.0026 61.1649 56.9726C66.8308 56.9481 71.3254 55.3195 76.3211 51.4814C77.1274 50.8603 77.1252 50.8688 76.1854 52.0156C74.1533 54.4944 70.9714 56.3683 66.7303 57.5859C63.7775 58.4358 58.3483 58.4252 54.8016 57.5644C47.9317 55.8973 44.2025 54.0741 33.0096 46.9209C26.7146 42.8978 13.3528 34.4116 6.08873 41.4023C3.29088 44.0948 3.22504 48.4552 4.86216 51.8056C7.43783 57.0631 13.2605 60.9364 19.8661 60.9365C7.79731 61.9708 -3.01792 50.3032 0.768413 42.2392ZM2.18248 0.141569C2.47394 -0.13585 25.0674 0.030516 27.7333 0.330046C35.4149 1.18811 40.795 5.14857 42.1434 10.9316C42.5738 12.7893 42.5679 15.9463 42.1239 17.8232C41.0479 22.3968 37.428 25.783 32.0155 27.2812C30.9204 27.5863 29.7164 27.8455 29.3377 27.8564C28.9593 27.8673 28.8338 27.938 29.0594 28.0088C29.2855 28.0823 30.2474 28.5291 31.1981 29.0058C33.4127 30.1118 35.9466 32.623 40.2586 37.9892C47.0685 46.4579 51.6226 50.1166 57.7977 52.0752C60.6879 52.9932 65.5563 53.1432 68.4764 52.4023C72.9573 51.2718 77.1468 48.575 79.3124 45.4316C80.579 43.5875 80.8973 43.854 79.8895 45.916C78.1625 49.449 73.1915 53.1732 67.8143 54.9629C65.1802 55.84 59.8327 56.0953 56.5721 55.4961C53.6303 54.9594 51.0639 54.0962 48.2665 52.707C41.6774 49.4301 37.5833 45.5157 30.6346 35.8486C25.9984 29.4009 24.0015 27.7304 20.4794 27.3681C19.5696 27.2728 18.9814 27.0824 18.9813 26.8808C18.9813 26.6466 19.9916 26.5074 22.454 26.3984C27.477 26.1805 30.7654 25.0008 32.4325 22.8134C36.2403 17.8203 35.7389 9.80381 31.367 5.81051C28.5859 3.2691 25.5732 2.31011 19.5262 2.04587L15.8485 1.88571L15.911 17.9922L15.9735 34.0996H8.9022V19.1064C8.9022 4.62563 8.88281 4.07785 8.35435 3.04001C7.67338 1.70557 6.6413 1.15762 4.16294 0.814421C2.15263 0.536572 1.88011 0.443934 2.18248 0.141569Z" fill="#420001"/>
</svg>
