<svg width="1302" height="36" viewBox="0 0 1302 36" fill="none" xmlns="http://www.w3.org/2000/svg">
<path d="M395.781 17.0038C481.697 17.0271 612.956 16.9692 614.978 17.5343C617.009 18.1001 479.15 17.9714 393.75 17.9955C211.78 18.0467 0 17.6471 0 17.5343C0 17.4221 213.763 16.9534 395.781 17.0038Z" fill="#BD8A3C"/>
<path d="M906.219 17.0038C820.303 17.0271 689.044 16.9692 687.022 17.5343C684.991 18.1001 822.85 17.9714 908.25 17.9955C1090.22 18.0467 1302 17.6471 1302 17.5343C1302 17.4221 1088.24 16.9534 906.219 17.0038Z" fill="#BD8A3C"/>
<path d="M626.003 13.1492C625.969 12.1787 626.25 11.2438 626.817 10.4442C627.644 9.28502 628.947 8.61944 630.396 8.61944L630.542 8.62183C631.009 8.63606 631.478 8.72028 631.936 8.86977C632.209 8.95875 632.497 9.09403 632.741 9.24589C633.274 9.47487 634.168 10.0882 635.204 10.7989C636.488 11.6804 637.943 12.6794 639.005 13.1421C639.524 13.3688 640.122 13.4162 640.534 13.4162C640.863 13.4162 641.198 13.3853 641.476 13.3284C642.477 13.1243 643.3 12.2084 643.394 11.1988C643.485 10.1903 642.839 9.14386 641.89 8.76539C641.328 8.53996 640.659 8.58621 640.259 8.86858C639.998 9.05366 639.785 9.41434 639.764 9.70739C639.755 9.8462 639.786 9.95181 639.862 10.0218C639.993 10.144 640.061 10.1582 640.084 10.1582C640.145 10.1582 640.241 10.0515 640.334 9.94943C640.518 9.74537 640.772 9.46418 641.213 9.46418C641.299 9.46418 641.391 9.47484 641.485 9.49739C641.595 9.52349 641.97 9.6362 642.155 10.004C642.297 10.2876 642.281 10.6352 642.104 11.0362C641.828 11.6591 640.941 12.1491 640.159 12.0767C639.248 12.0032 638.599 11.4811 638.377 10.6423C638.1 9.58518 638.562 8.33708 639.456 7.74149C639.807 7.50657 640.346 7.3713 640.935 7.3713C641.592 7.3713 642.225 7.53742 642.67 7.82809C642.876 7.96216 644.678 9.20315 644.469 11.4147C644.321 12.976 643.224 14.1138 641.533 14.4591C641.316 14.503 641.076 14.5255 640.815 14.5255C640.043 14.5255 639.205 14.3369 638.502 14.026C638.77 14.5125 638.881 14.993 638.834 15.4604C638.773 16.0869 638.429 16.5543 638.127 16.7821C638.056 16.8355 637.981 16.883 637.902 16.9257C639.203 17.0158 640.506 17.2104 641.795 17.5058C644.888 16.7999 647.634 15.6135 650.184 13.8848C648.16 12.5074 643.988 9.36809 643.181 6.44234C642.448 3.79303 642.943 1.82353 644.652 0.589633C645.163 0.220652 645.998 0 646.884 0C647.22 0 647.544 0.0308424 647.847 0.0913506C649.032 0.327451 650.092 1.11996 651 2.44521C651.904 1.11996 652.965 0.328638 654.152 0.0913506C654.455 0.0308424 654.779 0 655.114 0C656.002 0 656.835 0.220652 657.346 0.589633C659.055 1.82353 659.55 3.79303 658.817 6.44234C657.994 9.42622 653.538 12.7079 651.814 13.8848C654.362 15.6135 657.11 16.7987 660.205 17.5058C661.494 17.2104 662.795 17.0158 664.095 16.9245C664.018 16.883 663.942 16.8343 663.871 16.7809C663.569 16.5519 663.226 16.0845 663.164 15.4569C663.119 14.9906 663.231 14.5113 663.496 14.0248C662.559 14.4425 661.33 14.6335 660.465 14.4591C658.774 14.1138 657.675 12.976 657.531 11.4147C657.322 9.20196 659.122 7.96216 659.329 7.82809C659.774 7.53742 660.408 7.3713 661.067 7.3713C661.655 7.3713 662.195 7.50657 662.548 7.74149C663.439 8.33708 663.903 9.58399 663.623 10.6423C663.402 11.4811 662.753 12.0043 661.841 12.0767C661.054 12.1408 660.166 11.6472 659.897 11.0362C659.719 10.6352 659.702 10.2887 659.846 10.004C660.03 9.63739 660.408 9.5235 660.519 9.49858C660.61 9.47604 660.702 9.46538 660.788 9.46538C661.231 9.46538 661.481 9.74537 661.666 9.95063C661.76 10.0527 661.854 10.1594 661.916 10.1594C661.939 10.1594 662.007 10.1452 662.139 10.023C662.214 9.95301 662.246 9.8474 662.237 9.70978C662.216 9.41673 662.004 9.05723 661.739 8.86977C661.339 8.58621 660.666 8.54352 660.11 8.76539C659.163 9.14505 658.516 10.1914 658.607 11.1999C658.7 12.2096 659.523 13.1243 660.524 13.3296C660.803 13.3865 661.139 13.4174 661.468 13.4174C661.879 13.4174 662.476 13.3699 662.997 13.1433C664.058 12.6806 665.513 11.6816 666.796 10.8001C667.831 10.0894 668.726 9.47605 669.23 9.26012C669.502 9.09402 669.789 8.95875 670.062 8.86977C670.521 8.72028 670.99 8.63606 671.459 8.62183L671.604 8.61944C673.053 8.61944 674.354 9.28502 675.181 10.4442C675.747 11.2415 676.029 12.1752 675.998 13.1445C675.989 13.3616 675.572 15.4213 674.882 16.0572C674.525 16.5033 673.735 17.3136 672.278 17.9911C672.993 18.3162 673.603 18.697 674.062 19.1052C675.813 20.6582 675.996 22.8294 675.998 22.8519C676.029 23.8236 675.747 24.7597 675.181 25.5558C674.354 26.7149 673.052 27.3805 671.604 27.3805L671.459 27.3782C670.991 27.3628 670.522 27.2797 670.062 27.129C669.791 27.0412 669.503 26.906 669.257 26.7529C668.724 26.5239 667.83 25.9094 666.795 25.1987C665.512 24.3172 664.056 23.3182 662.996 22.8555C662.474 22.6289 661.876 22.5814 661.466 22.5814C661.135 22.5814 660.801 22.6122 660.523 22.6704C659.522 22.8756 658.699 23.7904 658.605 24.8C658.513 25.8085 659.16 26.8549 660.109 27.2334C660.668 27.4577 661.34 27.4149 661.74 27.1302C662.002 26.9439 662.216 26.5833 662.236 26.2902C662.245 26.1514 662.213 26.047 662.137 25.977C662.006 25.8536 661.938 25.8394 661.915 25.8394C661.853 25.8394 661.758 25.945 661.665 26.0482C661.481 26.2522 661.23 26.5334 660.787 26.5334C660.7 26.5334 660.609 26.5228 660.518 26.5002C660.407 26.4753 660.031 26.3614 659.846 25.996C659.701 25.7112 659.719 25.3636 659.896 24.9638C660.165 24.3504 661.085 23.8438 661.84 23.9221C662.752 23.9957 663.401 24.5189 663.622 25.3577C663.901 26.4136 663.439 27.6606 662.544 28.2585C662.194 28.4934 661.654 28.6287 661.066 28.6287C660.408 28.6287 659.774 28.4626 659.328 28.1719C659.122 28.0378 657.321 26.798 657.53 24.5853C657.675 23.024 658.774 21.8861 660.464 21.5409C661.329 21.3665 662.557 21.5575 663.495 21.9751C663.23 21.4887 663.118 21.0094 663.163 20.5431C663.225 19.9155 663.568 19.448 663.871 19.219C663.94 19.1656 664.017 19.117 664.093 19.0755C662.793 18.9841 661.49 18.7896 660.202 18.4941C657.108 19.2013 654.359 20.3865 651.812 22.1151C653.536 23.2921 657.992 26.5738 658.815 29.5577C659.548 32.207 659.053 34.1764 657.344 35.4103C656.833 35.7793 656 36 655.112 36C654.777 36 654.454 35.9692 654.15 35.9086C652.962 35.6725 651.901 34.88 650.997 33.5547C650.089 34.88 649.03 35.6714 647.844 35.9086C647.542 35.9692 647.218 36 646.881 36C645.995 36 645.16 35.7793 644.65 35.4103C642.94 34.1764 642.445 32.207 643.178 29.5577C643.986 26.6319 648.158 23.4926 650.181 22.1151C647.633 20.3853 644.884 19.2001 641.791 18.4941C640.503 18.7896 639.2 18.9841 637.9 19.0755C637.978 19.1182 638.053 19.1656 638.123 19.219C638.425 19.4468 638.77 19.9131 638.831 20.5396C638.877 21.007 638.766 21.4875 638.498 21.974C639.201 21.6619 640.04 21.4745 640.811 21.4745C641.072 21.4745 641.314 21.497 641.529 21.5409C643.22 21.8861 644.317 23.024 644.465 24.5853C644.675 26.798 642.872 28.0378 642.666 28.1719C642.22 28.4626 641.589 28.6287 640.931 28.6287C640.342 28.6287 639.803 28.4934 639.451 28.2585C638.559 27.6617 638.096 26.4136 638.374 25.3565C638.595 24.52 639.246 23.9968 640.156 23.9233C640.2 23.9197 640.247 23.9174 640.296 23.9174C641.047 23.9174 641.842 24.3765 642.102 24.965C642.278 25.3648 642.294 25.7124 642.152 25.996C641.968 26.3626 641.591 26.4765 641.48 26.5026C641.389 26.5251 641.297 26.5358 641.211 26.5358C640.768 26.5358 640.516 26.2558 640.332 26.0506C640.24 25.9485 640.145 25.8429 640.084 25.8429C640.06 25.8429 639.992 25.856 639.862 25.9805C639.788 26.0505 639.754 26.1562 639.764 26.295C639.784 26.588 639.997 26.9487 640.258 27.1338C640.662 27.4197 641.33 27.4612 641.889 27.237C642.836 26.8573 643.483 25.8109 643.393 24.8024C643.299 23.7928 642.476 22.878 641.475 22.6728C641.198 22.6146 640.862 22.5838 640.533 22.5838C640.122 22.5838 639.524 22.6312 639.003 22.8579C637.942 23.3206 636.488 24.3196 635.204 25.2011C634.168 25.9118 633.274 26.5263 632.768 26.741C632.495 26.9083 632.207 27.0424 631.936 27.1314C631.477 27.2821 631.008 27.3651 630.542 27.3805L630.396 27.3829C628.947 27.3829 627.644 26.7173 626.817 25.5582C626.251 24.7621 625.972 23.8283 626.003 22.8602C626.007 22.6538 626.43 20.5787 627.116 19.9463C627.473 19.5002 628.266 18.6899 629.722 18.0124C629.002 17.6862 628.403 17.3124 627.937 16.8984C626.393 15.5233 626.013 13.5597 626.003 13.1492ZM673.702 15.0855C674.627 13.9062 674.713 12.4279 673.925 11.3198C673.554 10.7965 672.499 9.96725 671.252 9.96725C670.364 9.96725 669.526 10.3777 668.76 11.1857C668.105 12.4314 668.437 13.3296 668.696 13.7543C669.041 14.3262 669.63 14.7047 670.158 14.6501C670.657 14.6026 671.005 14.4579 671.193 14.223C671.426 13.9311 671.375 13.5432 671.341 13.3011C671.307 13.0377 671.136 12.8384 670.833 12.7055C670.496 12.5584 669.989 12.0767 670.181 11.6437C670.349 11.2581 670.687 11.0457 671.128 11.0457C671.431 11.0457 671.679 11.1442 671.746 11.1738C672.492 11.4977 672.918 12.2523 672.862 13.1433C672.72 15.3572 671.453 15.8211 670.413 15.8211C670.199 15.8211 669.968 15.8009 669.728 15.763C669.296 15.6941 668.412 15.3501 667.848 14.4982C667.374 13.784 667.226 12.8906 667.405 11.8347C667.044 12.0613 666.573 12.3626 666.186 12.6082C665.887 12.7981 665.64 12.9558 665.544 13.0152C664.709 13.5989 664.478 14.0924 664.264 14.6774C664.118 15.0807 664.345 15.6313 664.617 15.7321C664.783 15.7962 665.069 15.7036 665.137 15.6135C665.19 15.5423 665.125 15.3667 664.963 15.1436C664.804 14.9253 664.783 14.6501 664.908 14.4057C665.161 13.9121 665.896 13.7721 666.381 14.2052C666.74 14.5267 666.931 14.9348 666.931 15.3857C666.933 15.9243 666.663 16.406 666.398 16.6457C666.307 16.7264 666.199 16.7999 666.086 16.864C668.281 16.8877 669.853 17.2033 670.646 17.4062C672.466 16.6706 673.298 15.6016 673.702 15.0855ZM664.264 21.3214C664.478 21.9063 664.709 22.3987 665.534 22.9765C665.64 23.0429 665.887 23.1996 666.186 23.3906C666.573 23.6362 667.044 23.9375 667.405 24.1641C667.226 23.1094 667.373 22.2148 667.848 21.5006C668.413 20.6499 669.296 20.3058 669.728 20.2358C669.967 20.1979 670.199 20.1777 670.413 20.1777C671.453 20.1777 672.719 20.6416 672.862 22.8543C672.918 23.7441 672.492 24.4999 671.748 24.825C671.68 24.8558 671.432 24.9531 671.13 24.9531C670.687 24.9531 670.35 24.7419 670.182 24.3563C669.99 23.9221 670.497 23.4404 670.835 23.2933C671.137 23.1616 671.308 22.9611 671.347 22.6645C671.376 22.4557 671.427 22.0677 671.194 21.777C671.006 21.5421 670.658 21.3974 670.16 21.3499C669.632 21.2894 669.042 21.6738 668.697 22.2457C668.438 22.6716 668.106 23.5697 668.761 24.8143C669.527 25.6234 670.364 26.0328 671.25 26.0328C672.499 26.0328 673.555 25.2034 673.927 24.6802C674.713 23.5709 674.626 22.0926 673.702 20.9145C673.298 20.3972 672.463 19.3282 670.646 18.5926C669.853 18.7955 668.278 19.1111 666.086 19.1348C666.201 19.1989 666.307 19.2724 666.398 19.3531C666.663 19.5928 666.934 20.0733 666.931 20.6131C666.931 21.064 666.74 21.4721 666.381 21.7936C665.899 22.2219 665.161 22.0867 664.908 21.5919C664.783 21.3487 664.802 21.0735 664.963 20.854C665.125 20.6309 665.191 20.4541 665.138 20.3841C665.069 20.2916 664.783 20.1979 664.616 20.2643C664.345 20.3675 664.118 20.918 664.264 21.3214ZM668.51 17.9994C666.884 17.7218 664.97 17.7218 662.792 17.9994C664.966 18.277 666.884 18.277 668.51 17.9994ZM657.949 5.75064C658.111 5.0186 658.188 3.34455 657.301 2.24828C656.785 1.60998 656.022 1.28608 655.034 1.28608C654.79 1.28608 654.527 1.30624 654.254 1.34658C653.252 1.49251 652.175 2.34081 651.374 3.61742C651.25 3.81199 651.13 3.90215 650.996 3.90215C650.825 3.90215 650.714 3.75269 650.632 3.61981C649.83 2.3432 648.749 1.49251 647.743 1.34658C646.354 1.14489 645.304 1.45812 644.653 2.27913C643.833 3.3137 643.835 4.90945 644.036 5.72927C644.714 8.48418 650.117 12.3354 650.996 12.9476C651.882 12.3271 657.359 8.39401 657.949 5.75064ZM644.047 30.2482C643.884 30.9802 643.808 32.6543 644.695 33.7505C645.339 34.5466 646.378 34.8515 647.743 34.6522C648.743 34.5063 649.818 33.6568 650.619 32.3861C650.684 32.277 650.819 32.0954 650.998 32.0954C651.185 32.0954 651.3 32.2781 651.364 32.3778C652.166 33.6532 653.245 34.5039 654.254 34.651C655.634 34.8492 656.694 34.5395 657.344 33.7173C658.163 32.6815 658.159 31.087 657.958 30.2683C657.28 27.5134 651.877 23.6622 650.998 23.05C650.114 23.6729 644.638 27.6048 644.047 30.2482ZM650.998 21.5789C653.303 19.9985 655.772 18.7955 658.346 17.9994C655.772 17.2021 653.302 16.0003 650.998 14.4199C648.692 16.0003 646.225 17.2033 643.651 17.9994C646.225 18.7967 648.692 19.9985 650.998 21.5789ZM639.205 17.9994C637.032 17.7218 635.116 17.7218 633.489 17.9994C635.116 18.277 637.028 18.2758 639.205 17.9994ZM628.293 20.9145C627.37 22.095 627.282 23.5733 628.071 24.6802C628.441 25.2034 629.498 26.0328 630.746 26.0328C631.634 26.0328 632.472 25.6234 633.238 24.8143C633.893 23.5697 633.561 22.6716 633.302 22.2457C632.957 21.6738 632.369 21.2846 631.837 21.3499C631.34 21.3974 630.993 21.5409 630.805 21.777C630.572 22.0677 630.624 22.4568 630.657 22.7001C630.69 22.9611 630.861 23.1616 631.164 23.2933C631.501 23.4416 632.008 23.9221 631.817 24.3551C631.649 24.7407 631.312 24.9531 630.87 24.9531C630.565 24.9531 630.317 24.8546 630.249 24.825C629.507 24.4999 629.08 23.7453 629.135 22.8543C629.281 20.6428 630.547 20.1777 631.582 20.1777C631.798 20.1777 632.029 20.1979 632.268 20.2358C632.702 20.3047 633.585 20.6499 634.148 21.5006C634.622 22.2148 634.771 23.1082 634.591 24.1629C634.986 23.915 635.519 23.5757 635.923 23.3182L636.452 22.9813C637.288 22.3975 637.509 21.9241 637.733 21.3202C637.876 20.9275 637.649 20.3652 637.382 20.2655C637.223 20.1991 636.929 20.2916 636.861 20.3841C636.808 20.4553 636.873 20.6309 637.035 20.854C637.194 21.0723 637.215 21.3487 637.09 21.5919C636.836 22.0867 636.099 22.2207 635.619 21.7936C635.258 21.4709 635.067 21.0616 635.067 20.6107C635.068 20.0721 635.336 19.5904 635.602 19.3531C635.693 19.2724 635.799 19.1989 635.915 19.1348C633.72 19.1099 632.147 18.7955 631.354 18.5926C629.537 19.327 628.699 20.3972 628.293 20.9145ZM631.352 17.4062C632.145 17.2033 633.717 16.8877 635.912 16.864C635.796 16.7999 635.691 16.7276 635.6 16.6457C635.335 16.4084 635.067 15.9279 635.064 15.388C635.064 14.936 635.256 14.5267 635.617 14.2052C636.098 13.7757 636.834 13.911 637.088 14.4057C637.212 14.6489 637.192 14.9253 637.033 15.1436C636.87 15.3667 636.806 15.5423 636.857 15.6123C636.929 15.7048 637.222 15.7926 637.381 15.7333C637.649 15.6325 637.875 15.0701 637.731 14.6774C637.509 14.0735 637.288 13.6001 636.46 13.0211L635.911 12.6723C635.509 12.416 634.983 12.0814 634.591 11.8347C634.772 12.8894 634.622 13.784 634.148 14.497C633.585 15.3477 632.702 15.693 632.268 15.7618C630.346 16.0643 629.269 15.1721 629.135 13.1421C629.08 12.2511 629.507 11.4966 630.249 11.1727C630.317 11.1418 630.565 11.0445 630.87 11.0445C631.312 11.0445 631.649 11.2569 631.817 11.6425C632.008 12.0767 631.501 12.5572 631.164 12.7043C630.861 12.8372 630.69 13.0365 630.652 13.3296C630.624 13.5384 630.569 13.9264 630.804 14.2194C630.992 14.4567 631.34 14.6003 631.838 14.6489C632.367 14.707 632.958 14.3238 633.304 13.7531C633.561 13.3272 633.893 12.4291 633.239 11.1845C632.473 10.3753 631.636 9.96605 630.748 9.96605C629.498 9.96605 628.443 10.7954 628.072 11.3198C627.284 12.4279 627.37 13.9062 628.294 15.0855C628.699 15.6016 629.537 16.673 631.352 17.4062Z" fill="#BD8A3C"/>
</svg>
