<svg width="1300" height="20" viewBox="0 0 1300 20" fill="none" xmlns="http://www.w3.org/2000/svg">
<path d="M1300 8.5625H0V11.4354H1300V8.5625Z" fill="#420001"/>
<path d="M691.868 7.97656H608.004V12.1554H691.868V7.97656Z" fill="white"/>
<path d="M657.939 10.015C655.508 12.3737 652.746 15.0483 650.067 17.6472C647.392 15.0483 644.631 12.3737 642.199 10.015C644.631 7.65193 647.392 4.97732 650.067 2.38281C652.746 4.97732 655.508 7.65193 657.939 10.015ZM646.369 10.015C647.571 11.181 648.819 12.3915 650.071 13.6064C651.324 12.3915 652.572 11.181 653.773 10.015C652.572 8.84905 651.324 7.63858 650.071 6.42365C648.814 7.63413 647.567 8.84905 646.369 10.015Z" fill="#420001"/>
<path d="M668.236 0C673.167 2.19398 680.572 5.48718 690.687 9.99085C680.572 14.4901 673.167 17.7877 668.236 19.9772C664.318 16.1812 660.754 12.7189 657.941 9.99085C660.754 7.25838 664.323 3.79608 668.236 0ZM668.236 14.6859C670.52 13.3508 673.204 11.7843 676.282 9.9864C673.204 8.18849 670.52 6.62199 668.236 5.28691C666.199 6.98247 664.3 8.56231 662.584 9.9864C664.3 11.4149 666.199 12.9903 668.236 14.6859Z" fill="#420001"/>
<path d="M642.238 10.0098C639.426 12.7378 635.857 16.2002 631.939 20.0007C627.008 17.8067 619.599 14.5135 609.488 10.0143C619.604 5.51506 627.008 2.21742 631.939 0.0234375C635.857 3.81951 639.422 7.28182 642.238 10.0098ZM637.596 10.0098C635.88 8.58575 633.981 7.0059 631.939 5.31035C629.655 6.64543 626.971 8.21192 623.893 10.0098C626.971 11.8077 629.655 13.3742 631.939 14.7093C633.981 13.0138 635.88 11.4339 637.596 10.0098Z" fill="#420001"/>
</svg>
