<svg width="335" height="28" viewBox="0 0 335 28" fill="none" xmlns="http://www.w3.org/2000/svg">
<path d="M330.979 14.0015C330.168 14.7897 329.239 15.6937 328.446 16.464C327.654 15.6937 326.724 14.7897 325.918 14.0015C326.724 13.2134 327.654 12.3094 328.446 11.5391C329.239 12.3094 330.173 13.2134 330.979 14.0015ZM327.123 14.0015C327.562 14.429 328.016 14.8699 328.451 15.2929C328.89 14.8699 329.339 14.429 329.784 14.0015C329.339 13.5741 328.89 13.1332 328.451 12.7102C328.016 13.1288 327.558 13.5741 327.123 14.0015Z" fill="#BD8A3C" fill-opacity="0.4"/>
<path d="M332.817 13.9981C331.59 15.1915 329.602 17.124 328.448 18.2462C327.293 17.124 325.301 15.187 324.078 13.9981C325.306 12.8047 327.293 10.8721 328.448 9.75C329.602 10.8677 331.59 12.8047 332.817 13.9981ZM325.278 13.9981C326.263 14.9554 327.49 16.1488 328.443 17.075C329.4 16.1488 330.632 14.951 331.612 13.9981C330.628 13.0407 329.4 11.8473 328.443 10.9211C327.495 11.8428 326.263 13.0407 325.278 13.9981Z" fill="#BD8A3C" fill-opacity="0.4"/>
<path d="M334.66 13.998C333.708 14.9242 328.459 20.0273 328.459 20.0273C328.459 20.0273 328.454 20.0228 328.445 20.0139C328.44 20.0228 328.436 20.0273 328.436 20.0273C328.436 20.0273 323.187 14.9242 322.234 13.998C323.187 13.0718 328.436 7.96875 328.436 7.96875C328.436 7.96875 328.44 7.9732 328.445 7.9821C328.454 7.9732 328.459 7.96875 328.459 7.96875C328.459 7.96875 333.708 13.0718 334.66 13.998ZM323.444 13.998C324.717 15.2359 327.295 17.7429 328.45 18.8695C329.608 17.7429 332.182 15.2404 333.46 13.998C332.187 12.7601 329.608 10.2531 328.45 9.12649C327.295 10.2531 324.717 12.7556 323.444 13.998Z" fill="#BD8A3C" fill-opacity="0.4"/>
<path d="M318.921 13.9997C318.023 14.8725 316.992 15.8788 316.113 16.7338C315.234 15.8788 314.198 14.8725 313.301 13.9997C314.198 13.1269 315.234 12.1206 316.113 11.2656C316.997 12.1206 318.023 13.1225 318.921 13.9997ZM314.638 13.9997C315.124 14.4717 315.632 14.966 316.113 15.4335C316.598 14.966 317.102 14.4717 317.588 13.9997C317.102 13.5277 316.594 13.0334 316.113 12.5659C315.632 13.0334 315.124 13.5233 314.638 13.9997Z" fill="#BD8A3C" fill-opacity="0.4"/>
<path d="M320.968 14.0013C319.608 15.3239 317.396 17.4746 316.113 18.7215C314.831 17.4791 312.619 15.3239 311.254 14.0013C312.619 12.6744 314.826 10.5281 316.113 9.28125C317.396 10.5236 319.608 12.6744 320.968 14.0013ZM312.596 14.0013C313.686 15.0611 315.055 16.3926 316.118 17.4257C317.176 16.397 318.546 15.0656 319.64 14.0013C318.55 12.9415 317.181 11.6101 316.118 10.5771C315.055 11.6101 313.686 12.9371 312.596 14.0013Z" fill="#BD8A3C" fill-opacity="0.4"/>
<path d="M323.011 13.9974C321.958 15.0216 316.127 20.6902 316.127 20.6902C316.127 20.6902 316.122 20.6857 316.113 20.6768C316.104 20.6857 316.099 20.6902 316.099 20.6902C316.099 20.6902 310.269 15.0261 309.211 13.9974C310.269 12.9733 316.099 7.30469 316.099 7.30469C316.099 7.30469 316.104 7.30913 316.113 7.31804C316.122 7.30913 316.127 7.30469 316.127 7.30469C316.127 7.30469 321.958 12.9688 323.011 13.9974ZM310.548 13.9974C311.968 15.3778 314.826 18.1565 316.113 19.4077C317.396 18.1565 320.258 15.3778 321.678 13.9974C320.258 12.617 317.396 9.83841 316.113 8.58714C314.826 9.83841 311.968 12.617 310.548 13.9974Z" fill="#BD8A3C" fill-opacity="0.4"/>
<path d="M305.525 14.0056C304.527 14.9764 303.377 16.0941 302.402 17.0425C301.422 16.0941 300.276 14.9764 299.273 14.0056C300.276 13.0349 301.422 11.9172 302.402 10.9688C303.377 11.9172 304.527 13.0349 305.525 14.0056ZM300.762 14.0056C301.302 14.5311 301.866 15.0788 302.402 15.5998C302.938 15.0788 303.496 14.5311 304.041 14.0056C303.496 13.4802 302.938 12.9325 302.402 12.4115C301.866 12.928 301.302 13.4757 300.762 14.0056Z" fill="#BD8A3C" fill-opacity="0.4"/>
<path d="M307.799 13.9956C306.287 15.465 303.828 17.8518 302.403 19.2411C300.974 17.8518 298.519 15.465 297.008 13.9956C298.519 12.5261 300.974 10.1349 302.403 8.75C303.828 10.1304 306.287 12.5261 307.799 13.9956ZM298.492 13.9956C299.706 15.1756 301.231 16.6584 302.403 17.7984C303.58 16.6584 305.101 15.1756 306.315 13.9956C305.101 12.8155 303.58 11.3327 302.403 10.1928C301.226 11.3327 299.701 12.8155 298.492 13.9956Z" fill="#BD8A3C" fill-opacity="0.4"/>
<path d="M310.069 13.9989C308.892 15.1433 302.415 21.4353 302.415 21.4353C302.415 21.4353 302.411 21.4308 302.402 21.4219C302.388 21.4308 302.383 21.4353 302.383 21.4353C302.383 21.4353 295.907 15.1433 294.734 13.9989C295.907 12.8545 302.383 6.5625 302.383 6.5625C302.383 6.5625 302.388 6.56695 302.402 6.57585C302.411 6.56695 302.415 6.5625 302.415 6.5625C302.415 6.5625 308.892 12.8545 310.069 13.9989ZM296.214 13.9989C297.794 15.5307 300.968 18.621 302.402 20.0103C303.831 18.621 307.009 15.5307 308.585 13.9989C307.009 12.4671 303.831 9.37675 302.402 7.98743C300.973 9.37675 297.794 12.4671 296.214 13.9989Z" fill="#BD8A3C" fill-opacity="0.4"/>
<path d="M290.643 14.0003C289.534 15.0779 288.256 16.3203 287.171 17.3756C286.085 16.3203 284.808 15.0779 283.699 14.0003C284.808 12.9227 286.085 11.6803 287.171 10.625C288.256 11.6803 289.53 12.9182 290.643 14.0003ZM285.343 14.0003C285.948 14.5881 286.576 15.1937 287.166 15.7726C287.762 15.1892 288.389 14.5836 288.989 14.0003C288.385 13.4125 287.757 12.8069 287.166 12.2281C286.576 12.8069 285.948 13.4125 285.343 14.0003Z" fill="#BD8A3C" fill-opacity="0.4"/>
<path d="M293.163 14.0007C291.482 15.635 288.752 18.2889 287.167 19.8296C285.583 18.2889 282.857 15.6394 281.172 14.0007C282.853 12.3665 285.583 9.71259 287.167 8.17188C288.757 9.71259 291.482 12.3621 293.163 14.0007ZM282.825 14.0007C284.172 15.3099 285.867 16.9531 287.172 18.2266C288.477 16.9531 290.167 15.3099 291.518 14.0007C290.167 12.6916 288.477 11.0485 287.172 9.77493C285.867 11.0485 284.172 12.6916 282.825 14.0007Z" fill="#BD8A3C" fill-opacity="0.4"/>
<path d="M295.685 13.999C294.38 15.2681 287.189 22.2636 287.189 22.2636C287.189 22.2636 287.18 22.2547 287.171 22.2458C287.162 22.2547 287.152 22.2636 287.152 22.2636C287.152 22.2636 279.962 15.2681 278.656 13.999C279.962 12.7299 287.152 5.73438 287.152 5.73438C287.152 5.73438 287.162 5.74327 287.171 5.75218C287.18 5.74327 287.189 5.73438 287.189 5.73438C287.189 5.73438 294.38 12.7254 295.685 13.999ZM280.3 13.999C282.055 15.7 285.581 19.1332 287.171 20.6784C288.76 19.1332 292.287 15.7 294.041 13.999C292.287 12.298 288.76 8.86476 287.171 7.3196C285.581 8.86031 282.055 12.298 280.3 13.999Z" fill="#BD8A3C" fill-opacity="0.4"/>
<path d="M274.096 13.9993C272.859 15.2016 271.448 16.5731 270.239 17.7487C269.03 16.5731 267.615 15.2016 266.383 13.9993C267.615 12.7971 269.03 11.4256 270.239 10.25C271.448 11.4211 272.864 12.7971 274.096 13.9993ZM268.215 13.9993C268.884 14.6495 269.58 15.3263 270.239 15.9675C270.903 15.3219 271.595 14.6495 272.264 13.9993C271.595 13.3492 270.899 12.6724 270.239 12.0311C269.58 12.6724 268.888 13.3448 268.215 13.9993Z" fill="#BD8A3C" fill-opacity="0.4"/>
<path d="M276.905 13.998C275.036 15.8148 272.004 18.7626 270.245 20.4725C268.487 18.7626 265.45 15.8148 263.586 13.998C265.45 12.1812 268.487 9.23336 270.245 7.52344C272 9.22891 275.032 12.1767 276.905 13.998ZM265.413 13.998C266.911 15.4541 268.789 17.2798 270.245 18.6958C271.697 17.2842 273.58 15.4541 275.078 13.998C273.58 12.5419 271.702 10.7162 270.245 9.30013C268.789 10.7117 266.911 12.5374 265.413 13.998Z" fill="#BD8A3C" fill-opacity="0.4"/>
<path d="M279.708 13.9989C278.256 15.406 270.259 23.1853 270.259 23.1853C270.259 23.1853 270.254 23.1763 270.241 23.1674C270.227 23.1763 270.222 23.1853 270.222 23.1853C270.222 23.1853 262.225 15.4104 260.773 13.9989C262.221 12.5917 270.222 4.8125 270.222 4.8125C270.222 4.8125 270.227 4.8214 270.241 4.8303C270.254 4.8214 270.259 4.8125 270.259 4.8125C270.259 4.8125 278.256 12.5873 279.708 13.9989ZM262.61 13.9989C264.557 15.8914 268.477 19.7031 270.245 21.4219C272.013 19.7031 275.929 15.8914 277.876 13.9989C275.929 12.1064 272.013 8.29467 270.245 6.57584C268.477 8.29022 264.552 12.1064 262.61 13.9989Z" fill="#BD8A3C" fill-opacity="0.4"/>
<path d="M255.722 13.996C254.353 15.3275 252.777 16.8593 251.435 18.164C250.093 16.8593 248.522 15.3275 247.148 13.996C248.522 12.6646 250.093 11.1328 251.435 9.82812C252.777 11.1328 254.353 12.6646 255.722 13.996ZM249.187 13.996C249.929 14.7174 250.703 15.4655 251.435 16.1825C252.173 15.4655 252.942 14.7174 253.689 13.996C252.942 13.2747 252.173 12.5221 251.435 11.8097C250.703 12.5221 249.929 13.2747 249.187 13.996Z" fill="#BD8A3C" fill-opacity="0.4"/>
<path d="M258.838 13.9962C256.763 16.0133 253.392 19.2862 251.436 21.1876C249.48 19.2862 246.114 16.0133 244.039 13.9962C246.114 11.979 249.48 8.70163 251.436 6.80469C253.392 8.69718 256.763 11.9745 258.838 13.9962ZM246.073 13.9962C247.735 15.6126 249.819 17.6431 251.436 19.215C253.053 17.6431 255.141 15.6126 256.804 13.9962C255.141 12.3797 253.053 10.3492 251.436 8.77734C249.824 10.3448 247.735 12.3753 246.073 13.9962Z" fill="#BD8A3C" fill-opacity="0.4"/>
<path d="M261.954 13.9985C260.342 15.566 251.461 24.2002 251.461 24.2002C251.461 24.2002 251.452 24.1957 251.438 24.1824C251.424 24.1957 251.42 24.2002 251.42 24.2002C251.42 24.2002 242.534 15.566 240.922 13.9985C242.534 12.4311 251.42 3.79688 251.42 3.79688C251.42 3.79688 251.424 3.80135 251.438 3.81471C251.452 3.80135 251.461 3.79688 251.461 3.79688C251.461 3.79688 260.342 12.4311 261.954 13.9985ZM242.96 13.9985C245.122 16.1003 249.482 20.3395 251.443 22.2454C253.407 20.3395 257.763 16.1003 259.925 13.9985C257.763 11.8967 253.407 7.65757 251.443 5.75172C249.478 7.65757 245.117 11.8967 242.96 13.9985Z" fill="#BD8A3C" fill-opacity="0.4"/>
<path d="M235.303 14.006C233.783 15.4844 232.033 17.1854 230.545 18.6371C229.051 17.1854 227.302 15.4844 225.781 14.006C227.302 12.5277 229.051 10.8267 230.545 9.375C232.033 10.8267 233.783 12.5277 235.303 14.006ZM228.039 14.006C228.868 14.812 229.725 15.6403 230.545 16.4374C231.364 15.6403 232.216 14.812 233.045 14.006C232.216 13.2001 231.364 12.3718 230.545 11.5748C229.725 12.3674 228.864 13.2001 228.039 14.006Z" fill="#BD8A3C" fill-opacity="0.4"/>
<path d="M238.768 14.0008C236.459 16.2451 232.717 19.8831 230.546 21.9938C228.371 19.8831 224.629 16.2451 222.32 14.0008C224.629 11.7565 228.371 8.1185 230.546 6.00781C232.713 8.11405 236.459 11.7565 238.768 14.0008ZM224.583 14.0008C226.429 15.7953 228.751 18.053 230.546 19.7985C232.342 18.053 234.655 15.7998 236.51 14.0008C234.659 12.2063 232.342 9.94863 230.546 8.20309C228.751 9.94418 226.429 12.2018 224.583 14.0008Z" fill="#BD8A3C" fill-opacity="0.4"/>
<path d="M242.224 14.0012C240.433 15.7423 230.563 25.3384 230.563 25.3384C230.563 25.3384 230.554 25.3294 230.54 25.3161C230.522 25.3294 230.513 25.3384 230.513 25.3384C230.513 25.3384 220.647 15.7423 218.852 14.0012C220.647 12.2601 230.513 2.66406 230.513 2.66406C230.513 2.66406 230.522 2.67296 230.54 2.68631C230.554 2.67296 230.563 2.66406 230.563 2.66406C230.563 2.66406 240.438 12.2601 242.224 14.0012ZM221.119 14.0012C223.519 16.3345 228.36 21.0457 230.545 23.1653C232.725 21.0457 237.561 16.339 239.966 14.0012C237.566 11.6679 232.725 6.95668 230.545 4.83709C228.36 6.95668 223.519 11.6634 221.119 14.0012Z" fill="#BD8A3C" fill-opacity="0.4"/>
<path d="M212.615 14.0025C210.921 15.6456 208.979 17.5381 207.325 19.1456C205.672 17.5381 203.725 15.6456 202.035 14.0025C203.725 12.3594 205.672 10.4669 207.325 8.85938C208.979 10.4669 210.916 12.3549 212.615 14.0025ZM204.545 14.0025C205.461 14.8931 206.409 15.8193 207.321 16.701C208.228 15.8193 209.18 14.8931 210.101 14.0025C209.185 13.1119 208.232 12.1857 207.321 11.304C206.409 12.1813 205.461 13.1075 204.545 14.0025Z" fill="#BD8A3C" fill-opacity="0.4"/>
<path d="M216.454 14.0086C213.889 16.5022 209.73 20.5455 207.321 22.8922C204.907 20.5455 200.748 16.4977 198.184 14.0086C200.748 11.5149 204.907 7.47169 207.321 5.125C209.735 7.47169 213.894 11.5149 216.454 14.0086ZM200.698 14.0086C202.75 16.0035 205.329 18.5149 207.321 20.4475C209.313 18.5105 211.892 16.0035 213.944 14.0086C211.892 12.0137 209.309 9.50221 207.321 7.56964C205.329 9.50221 202.75 12.0092 200.698 14.0086Z" fill="#BD8A3C" fill-opacity="0.4"/>
<path d="M220.301 14.0036C218.313 15.9406 207.348 26.6009 207.348 26.6009C207.348 26.6009 207.334 26.592 207.321 26.5741C207.302 26.592 207.293 26.6009 207.293 26.6009C207.293 26.6009 196.324 15.9361 194.336 14.0036C196.324 12.0665 207.293 1.40625 207.293 1.40625C207.293 1.40625 207.302 1.41514 207.321 1.43295C207.334 1.41514 207.348 1.40625 207.348 1.40625C207.348 1.40625 218.313 12.0665 220.301 14.0036ZM196.85 14.0036C199.516 16.5996 204.898 21.8274 207.321 24.183C209.739 21.8274 215.121 16.5996 217.791 14.0036C215.121 11.4075 209.739 6.17533 207.321 3.82418C204.898 6.17533 199.516 11.4075 196.85 14.0036Z" fill="#BD8A3C" fill-opacity="0.4"/>
<path d="M187.401 14.0022C185.523 15.8279 183.366 17.9297 181.525 19.7153C179.688 17.9297 177.526 15.8279 175.648 14.0022C177.526 12.1765 179.688 10.0747 181.525 8.28906C183.366 10.0747 185.519 12.172 187.401 14.0022ZM178.438 14.0022C179.459 14.9952 180.513 16.0193 181.525 17.0034C182.537 16.0193 183.59 14.9952 184.616 14.0022C183.59 13.0092 182.537 11.985 181.525 11.0009C180.513 11.9805 179.455 13.0092 178.438 14.0022Z" fill="#BD8A3C" fill-opacity="0.4"/>
<path d="M191.679 13.9971C188.83 16.7624 184.209 21.2598 181.525 23.8693C178.845 21.2598 174.219 16.7624 171.375 13.9971C174.224 11.2274 178.845 6.73441 181.525 4.125C184.209 6.73441 188.83 11.2274 191.679 13.9971ZM174.169 13.9971C176.45 16.2147 179.312 19.0022 181.525 21.153C183.737 19.0022 186.604 16.2147 188.885 13.9971C186.604 11.7796 183.737 8.99202 181.525 6.84125C179.312 8.99202 176.45 11.7796 174.169 13.9971Z" fill="#BD8A3C" fill-opacity="0.4"/>
<path d="M195.951 14C193.744 16.1463 181.56 28 181.56 28C181.56 28 181.547 27.9866 181.528 27.9688C181.51 27.9866 181.501 28 181.501 28C181.501 28 169.313 16.1507 167.105 14C169.313 11.8537 181.501 0 181.501 0C181.501 0 181.51 0.0133417 181.528 0.0311534C181.547 0.0133417 181.56 0 181.56 0C181.56 0 193.739 11.8492 195.951 14ZM169.89 14C172.854 16.881 178.835 22.6921 181.524 25.3104C184.217 22.6921 190.194 16.881 193.157 14C190.194 11.1189 184.217 5.30342 181.524 2.68955C178.84 5.29896 172.858 11.1145 169.89 14Z" fill="#BD8A3C" fill-opacity="0.4"/>
<path d="M6.21184 11.5391C7.0042 12.3094 7.93397 13.2134 8.74466 14.0015C7.93397 14.7897 7.0042 15.6937 6.21184 16.464C5.41947 15.6937 4.4897 14.7897 3.68359 14.0015C4.4897 13.2134 5.41947 12.3094 6.21184 11.5391ZM6.21184 12.7102C5.77672 13.1332 5.32328 13.5741 4.88359 14.0015C5.32328 14.429 5.77672 14.8699 6.21184 15.2929C6.64695 14.8699 7.10038 14.429 7.54008 14.0015C7.10038 13.5741 6.64695 13.1288 6.21184 12.7102Z" fill="#BD8A3C" fill-opacity="0.4"/>
<path d="M6.20931 9.75C7.36351 10.8721 9.3513 12.8091 10.5788 13.9981C9.3513 15.1915 7.36351 17.124 6.20931 18.2462C5.05511 17.124 3.06274 15.187 1.83984 13.9981C3.06274 12.8047 5.05511 10.8677 6.20931 9.75ZM6.20931 10.9166C5.25664 11.8428 4.02458 13.0407 3.03985 13.9936C4.02458 14.951 5.25664 16.1444 6.20931 17.0706C7.16198 16.1444 8.39404 14.9465 9.37877 13.9936C8.39404 13.0407 7.16198 11.8428 6.20931 10.9166Z" fill="#BD8A3C" fill-opacity="0.4"/>
<path d="M6.19695 7.96875C6.19695 7.96875 6.19695 7.9732 6.20611 7.9821C6.21527 7.9732 6.21985 7.96875 6.21985 7.96875C6.21985 7.96875 11.4641 13.0718 12.4168 13.998C11.4641 14.9242 6.21985 20.0273 6.21985 20.0273C6.21985 20.0273 6.21527 20.0228 6.20611 20.0139C6.19695 20.0228 6.19695 20.0273 6.19695 20.0273C6.19695 20.0273 0.948092 14.9242 0 13.998C0.952672 13.0718 6.19695 7.96875 6.19695 7.96875ZM6.21069 9.12649C5.05191 10.2531 2.47786 12.7556 1.20458 13.998C2.47786 15.2359 5.05191 17.7429 6.21069 18.8695C7.36947 17.7429 9.94352 15.2404 11.2168 13.998C9.94352 12.7556 7.36947 10.2531 6.21069 9.12649Z" fill="#BD8A3C" fill-opacity="0.4"/>
<path d="M18.5466 11.2578C19.426 12.1128 20.4611 13.1191 21.3588 13.9919C20.4611 14.8647 19.426 15.871 18.5466 16.726C17.6672 15.871 16.6367 14.8647 15.7344 13.9919C16.6367 13.1191 17.6718 12.1172 18.5466 11.2578ZM18.5466 12.5581C18.0657 13.0256 17.5573 13.5199 17.0718 13.9919C17.5573 14.4639 18.0657 14.9582 18.5466 15.4257C19.0275 14.9582 19.5359 14.4639 20.026 13.9919C19.5359 13.5199 19.0321 13.0301 18.5466 12.5581Z" fill="#BD8A3C" fill-opacity="0.4"/>
<path d="M18.5464 9.28125C19.8288 10.5236 22.041 12.6744 23.4013 14.0013C22.041 15.3239 19.8288 17.4746 18.5464 18.7215C17.2639 17.4791 15.0517 15.3239 13.6914 14.0013C15.0563 12.6744 17.2685 10.5236 18.5464 9.28125ZM18.5464 10.5771C17.4884 11.6057 16.1189 12.9371 15.0242 14.0013C16.1143 15.0611 17.4884 16.3926 18.5464 17.4257C19.6044 16.397 20.9784 15.0656 22.0685 14.0013C20.9784 12.9371 19.609 11.6101 18.5464 10.5771Z" fill="#BD8A3C" fill-opacity="0.4"/>
<path d="M18.5363 7.30469C18.5363 7.30469 18.5409 7.30913 18.5501 7.31804C18.5592 7.30913 18.5638 7.30469 18.5638 7.30469C18.5638 7.30469 24.3897 12.9688 25.4478 13.9974C24.3897 15.0216 18.5638 20.6902 18.5638 20.6902C18.5638 20.6902 18.5592 20.6857 18.5501 20.6768C18.5409 20.6857 18.5363 20.6902 18.5363 20.6902C18.5363 20.6902 12.7104 15.0261 11.6523 13.9974C12.7058 12.9688 18.5363 7.30469 18.5363 7.30469ZM18.5455 8.58714C17.2584 9.83841 14.4004 12.617 12.9806 13.9974C14.4004 15.3778 17.2584 18.1565 18.5455 19.4077C19.8325 18.1565 22.6905 15.3778 24.1104 13.9974C22.6951 12.617 19.8371 9.83841 18.5455 8.58714Z" fill="#BD8A3C" fill-opacity="0.4"/>
<path d="M32.2565 10.9609C33.2321 11.9094 34.3817 13.0271 35.3801 13.9978C34.3817 14.9686 33.2366 16.0862 32.2565 17.0347C31.2763 16.0862 30.1313 14.9686 29.1328 13.9978C30.1313 13.0271 31.2763 11.9094 32.2565 10.9609ZM32.2565 12.3992C31.716 12.9202 31.1572 13.4679 30.6168 13.9934C31.1572 14.5188 31.7206 15.0665 32.2565 15.5875C32.7924 15.0665 33.3557 14.5188 33.8962 13.9934C33.3557 13.4679 32.7924 12.9202 32.2565 12.3992Z" fill="#BD8A3C" fill-opacity="0.4"/>
<path d="M32.2548 8.75C33.6792 10.1349 36.1342 12.5261 37.6502 13.9956C36.1388 15.465 33.6792 17.8518 32.2548 19.2411C30.8258 17.8518 28.3708 15.465 26.8594 13.9956C28.3708 12.5261 30.8304 10.1304 32.2548 8.75ZM32.2548 10.1883C31.0777 11.3327 29.5571 12.8155 28.3434 13.9911C29.5571 15.1711 31.0777 16.654 32.2548 17.7939C33.4319 16.654 34.9525 15.1711 36.1663 13.9911C34.9525 12.8155 33.4319 11.3327 32.2548 10.1883Z" fill="#BD8A3C" fill-opacity="0.4"/>
<path d="M32.2426 6.5625C32.2426 6.5625 32.2472 6.56695 32.2563 6.57585C32.2655 6.56695 32.2701 6.5625 32.2701 6.5625C32.2701 6.5625 38.7464 12.8545 39.9189 13.9989C38.7464 15.1433 32.2701 21.4353 32.2701 21.4353C32.2701 21.4353 32.2655 21.4308 32.2563 21.4219C32.2472 21.4308 32.2426 21.4353 32.2426 21.4353C32.2426 21.4353 25.7663 15.1433 24.5938 13.9989C25.7663 12.8545 32.2426 6.5625 32.2426 6.5625ZM32.2563 7.98743C30.8228 9.37675 27.6487 12.4671 26.0731 13.9989C27.6487 15.5307 30.8273 18.621 32.2563 20.0103C33.6854 18.621 36.864 15.5307 38.4396 13.9989C36.864 12.4671 33.6854 9.37675 32.2563 7.98743Z" fill="#BD8A3C" fill-opacity="0.4"/>
<path d="M47.4913 10.625C48.5768 11.6803 49.8546 12.9227 50.963 14.0003C49.8546 15.0779 48.5768 16.3203 47.4913 17.3756C46.4058 16.3203 45.1279 15.0779 44.0195 14.0003C45.1279 12.9182 46.4012 11.6803 47.4913 10.625ZM47.4913 12.2236C46.8959 12.8069 46.2684 13.4125 45.6684 13.9958C46.2684 14.5836 46.8959 15.1892 47.4913 15.7681C48.0867 15.1848 48.7142 14.5792 49.3142 13.9958C48.7096 13.4125 48.0867 12.8069 47.4913 12.2236Z" fill="#BD8A3C" fill-opacity="0.4"/>
<path d="M47.4915 8.17188C49.0762 9.71259 51.806 12.3621 53.4869 14.0007C51.806 15.635 49.0762 18.2889 47.4915 19.8296C45.9068 18.2889 43.177 15.6394 41.4961 14.0007C43.177 12.3621 45.9068 9.71259 47.4915 8.17188ZM47.4915 9.77048C46.1816 11.044 44.4915 12.6871 43.145 13.9963C44.4915 15.3055 46.1816 16.9486 47.4915 18.2221C48.8014 16.9486 50.4915 15.3055 51.8381 13.9963C50.4915 12.6916 48.7968 11.0485 47.4915 9.77048Z" fill="#BD8A3C" fill-opacity="0.4"/>
<path d="M47.4734 5.72656C47.4734 5.72656 47.478 5.73549 47.4917 5.7444C47.5009 5.73549 47.5055 5.72656 47.5055 5.72656C47.5055 5.72656 54.7009 12.7221 56.0062 13.9912C54.7009 15.2603 47.5055 22.2558 47.5055 22.2558C47.5055 22.2558 47.5009 22.2469 47.4917 22.238C47.4826 22.2469 47.4734 22.2558 47.4734 22.2558C47.4734 22.2558 40.278 15.2603 38.9727 13.9912C40.278 12.7221 47.4734 5.72656 47.4734 5.72656ZM47.4917 7.31627C45.9024 8.86143 42.3711 12.2946 40.6215 13.9957C42.3711 15.6967 45.9024 19.1299 47.4917 20.675C49.081 19.1299 52.6123 15.6967 54.362 13.9957C52.6078 12.2946 49.0765 8.85698 47.4917 7.31627Z" fill="#BD8A3C" fill-opacity="0.4"/>
<path d="M64.419 10.25C65.6281 11.4256 67.0434 12.7971 68.2755 13.9993C67.0388 15.2016 65.6236 16.5731 64.419 17.7487C63.2098 16.5731 61.7946 15.2016 60.5625 13.9993C61.7946 12.7971 63.2098 11.4211 64.419 10.25ZM64.419 12.0267C63.7549 12.6679 63.0633 13.3448 62.3946 13.9949C63.0633 14.645 63.7594 15.3219 64.419 15.9631C65.0831 15.3174 65.7747 14.645 66.4434 13.9949C65.7747 13.3448 65.0831 12.6724 64.419 12.0267Z" fill="#BD8A3C" fill-opacity="0.4"/>
<path d="M64.4173 7.52344C66.1761 9.23336 69.2082 12.1812 71.0769 13.998C69.2082 15.8148 66.1761 18.7626 64.4173 20.4725C62.6586 18.7626 59.6265 15.8148 57.7578 13.998C59.6265 12.1767 62.6586 9.22891 64.4173 7.52344ZM64.4173 9.30013C62.9654 10.7117 61.083 12.5419 59.5899 13.998C61.0876 15.4541 62.9654 17.2798 64.4173 18.6958C65.8693 17.2842 67.7471 15.4541 69.2494 13.998C67.7517 12.5374 65.8693 10.7117 64.4173 9.30013Z" fill="#BD8A3C" fill-opacity="0.4"/>
<path d="M64.3981 4.8125C64.3981 4.8125 64.4026 4.8214 64.4164 4.8303C64.4301 4.8214 64.4347 4.8125 64.4347 4.8125C64.4347 4.8125 72.4271 12.5873 73.879 13.9989C72.4271 15.406 64.4347 23.1853 64.4347 23.1853C64.4347 23.1853 64.4301 23.1763 64.4164 23.1674C64.4026 23.1763 64.3981 23.1853 64.3981 23.1853C64.3981 23.1853 56.4011 15.4104 54.9492 13.9989C56.4057 12.5873 64.3981 4.8125 64.3981 4.8125ZM64.4164 6.57584C62.653 8.29467 58.7278 12.1064 56.7813 13.9989C58.7278 15.8914 62.6484 19.7031 64.4164 21.4219C66.1843 19.7031 70.1049 15.8914 72.0515 13.9989C70.1049 12.1064 66.1843 8.29022 64.4164 6.57584Z" fill="#BD8A3C" fill-opacity="0.4"/>
<path d="M83.2167 9.82812C84.5587 11.1328 86.1343 12.6646 87.5037 13.996C86.1343 15.3275 84.5587 16.8593 83.2167 18.164C81.8793 16.8593 80.3037 15.3275 78.9297 13.996C80.3037 12.6646 81.8793 11.1328 83.2167 9.82812ZM83.2167 11.8052C82.4793 12.5177 81.7098 13.2702 80.9679 13.9916C81.7098 14.713 82.4839 15.4611 83.2167 16.178C83.9541 15.4611 84.7236 14.713 85.4701 13.9916C84.7236 13.2747 83.9541 12.5221 83.2167 11.8052Z" fill="#BD8A3C" fill-opacity="0.4"/>
<path d="M83.2218 6.79688C85.1776 8.69382 88.5485 11.9712 90.6234 13.9883C88.5485 16.0055 85.1776 19.2784 83.2218 21.1798C81.2661 19.2784 77.8951 16.0055 75.8203 13.9883C77.8951 11.9712 81.2661 8.69382 83.2218 6.79688ZM83.2218 8.77397C81.6051 10.3459 79.5211 12.3764 77.8585 13.9928C79.5211 15.6092 81.6096 17.6398 83.2218 19.2116C84.8386 17.6398 86.9272 15.6092 88.5898 13.9928C86.9272 12.3719 84.8386 10.3414 83.2218 8.77397Z" fill="#BD8A3C" fill-opacity="0.4"/>
<path d="M83.2008 3.79688C83.2008 3.79688 83.2054 3.80135 83.2192 3.81471C83.2329 3.80135 83.2421 3.79688 83.2421 3.79688C83.2421 3.79688 92.1275 12.4311 93.7352 13.9985C92.1275 15.566 83.2421 24.2002 83.2421 24.2002C83.2421 24.2002 83.2329 24.1957 83.2192 24.1824C83.2054 24.1957 83.2008 24.2002 83.2008 24.2002C83.2008 24.2002 74.3153 15.566 72.7031 13.9985C74.3153 12.4311 83.2008 3.79688 83.2008 3.79688ZM83.2192 5.75172C81.2589 7.65757 76.9031 11.8967 74.7367 13.9985C76.8985 16.1003 81.2543 20.3395 83.2192 22.2454C85.1795 20.3395 89.5398 16.1003 91.7016 13.9985C89.5398 11.8967 85.1795 7.65757 83.2192 5.75172Z" fill="#BD8A3C" fill-opacity="0.4"/>
<path d="M104.119 9.375C105.607 10.8267 107.357 12.5277 108.882 14.006C107.357 15.4844 105.612 17.1854 104.119 18.6371C102.626 17.1854 100.876 15.4844 99.3555 14.006C100.876 12.5277 102.626 10.8267 104.119 9.375ZM104.119 11.5748C103.299 12.3718 102.442 13.2001 101.618 14.006C102.447 14.812 103.304 15.6403 104.119 16.4374C104.939 15.6403 105.791 14.812 106.62 14.006C105.791 13.2001 104.934 12.3674 104.119 11.5748Z" fill="#BD8A3C" fill-opacity="0.4"/>
<path d="M104.12 6.00781C106.291 8.1185 110.037 11.7565 112.341 14.0008C110.033 16.2451 106.291 19.8831 104.12 21.9938C101.949 19.8831 98.2023 16.2451 95.8984 14.0008C98.2023 11.7565 101.944 8.11405 104.12 6.00781ZM104.12 8.20309C102.324 9.94863 100.007 12.2018 98.1565 14.0008C100.002 15.7953 102.324 18.053 104.12 19.7985C105.915 18.053 108.233 15.7998 110.083 14.0008C108.233 12.2018 105.911 9.94418 104.12 8.20309Z" fill="#BD8A3C" fill-opacity="0.4"/>
<path d="M104.091 2.66406C104.091 2.66406 104.1 2.67296 104.114 2.68631C104.127 2.67296 104.137 2.66406 104.137 2.66406C104.137 2.66406 114.007 12.2601 115.798 14.0012C114.007 15.7423 104.137 25.3384 104.137 25.3384C104.137 25.3384 104.127 25.3294 104.114 25.3161C104.1 25.3294 104.091 25.3384 104.091 25.3384C104.091 25.3384 94.2205 15.7423 92.4297 14.0012C94.2205 12.2601 104.091 2.66406 104.091 2.66406ZM104.118 4.83709C101.938 6.95668 97.0969 11.6634 94.6923 14.0012C97.0923 16.3345 101.938 21.0457 104.118 23.1653C106.298 21.0457 111.14 16.339 113.54 14.0012C111.135 11.6634 106.294 6.95668 104.118 4.83709Z" fill="#BD8A3C" fill-opacity="0.4"/>
<path d="M127.329 8.85938C128.987 10.4669 130.929 12.3594 132.619 14.0025C130.929 15.6456 128.987 17.5381 127.329 19.1456C125.676 17.5381 123.729 15.6456 122.039 14.0025C123.734 12.3594 125.676 10.4713 127.329 8.85938ZM127.329 11.304C126.422 12.1857 125.47 13.1119 124.554 14.0025C125.47 14.8931 126.422 15.8193 127.329 16.701C128.241 15.8193 129.189 14.8931 130.109 14.0025C129.193 13.1119 128.241 12.1857 127.329 11.304Z" fill="#BD8A3C" fill-opacity="0.4"/>
<path d="M127.333 5.10938C129.746 7.45607 133.91 11.5038 136.47 13.993C133.905 16.4866 129.746 20.5299 127.333 22.8766C124.919 20.5299 120.76 16.4822 118.195 13.993C120.76 11.5038 124.924 7.46052 127.333 5.10938ZM127.333 7.55405C125.34 9.49107 122.762 11.9981 120.71 13.993C122.766 15.9879 125.34 18.4993 127.333 20.4319C129.325 18.4949 131.904 15.9879 133.96 13.993C131.904 11.9981 129.325 9.49107 127.333 7.55405Z" fill="#BD8A3C" fill-opacity="0.4"/>
<path d="M127.309 1.40625C127.309 1.40625 127.318 1.41514 127.332 1.43295C127.35 1.41514 127.359 1.40625 127.359 1.40625C127.359 1.40625 138.324 12.071 140.316 14.0036C138.329 15.9406 127.359 26.6009 127.359 26.6009C127.359 26.6009 127.35 26.592 127.332 26.5741C127.318 26.592 127.309 26.6009 127.309 26.6009C127.309 26.6009 116.339 15.9361 114.352 14.0036C116.344 12.0665 127.309 1.40625 127.309 1.40625ZM127.332 3.81973C124.913 6.17088 119.532 11.403 116.861 13.9991C119.532 16.5952 124.909 21.8229 127.332 24.1785C129.755 21.8229 135.136 16.5952 137.802 13.9991C135.136 11.4075 129.755 6.17533 127.332 3.81973Z" fill="#BD8A3C" fill-opacity="0.4"/>
<path d="M153.134 8.28125C154.975 10.0669 157.133 12.1686 159.015 13.9943C157.133 15.82 154.975 17.9218 153.134 19.7075C151.298 17.9218 149.136 15.82 147.258 13.9943C149.136 12.1686 151.293 10.0713 153.134 8.28125ZM153.134 10.9975C152.127 11.9816 151.069 13.0058 150.047 13.9988C151.069 14.9918 152.127 16.016 153.134 17.0001C154.146 16.016 155.204 14.9918 156.221 13.9988C155.2 13.0058 154.142 11.9772 153.134 10.9975Z" fill="#BD8A3C" fill-opacity="0.4"/>
<path d="M153.134 4.125C155.813 6.73441 160.439 11.2274 163.288 13.9971C160.439 16.7624 155.818 21.2598 153.134 23.8693C150.455 21.2598 145.829 16.7624 142.984 13.9971C145.829 11.2274 150.455 6.73441 153.134 4.125ZM153.134 6.8368C150.922 8.98757 148.059 11.7751 145.774 13.9927C148.059 16.2102 150.922 18.9978 153.134 21.1485C155.351 18.9978 158.213 16.2102 160.494 13.9927C158.213 11.7796 155.351 8.99202 153.134 6.8368Z" fill="#BD8A3C" fill-opacity="0.4"/>
<path d="M153.106 0C153.106 0 153.116 0.0133417 153.134 0.0311534C153.152 0.0133417 153.161 0 153.161 0C153.161 0 165.349 11.8492 167.557 14C165.349 16.1463 153.161 28 153.161 28C153.161 28 153.152 27.9866 153.134 27.9688C153.116 27.9866 153.106 28 153.106 28C153.106 28 140.919 16.1507 138.711 14C140.919 11.8492 153.106 0 153.106 0ZM153.134 2.68955C150.445 5.30342 144.464 11.1189 141.5 14C144.464 16.881 150.441 22.6921 153.134 25.3104C155.827 22.6921 161.804 16.881 164.767 14C161.804 11.1145 155.827 5.29896 153.134 2.68955Z" fill="#BD8A3C" fill-opacity="0.4"/>
</svg>
